<?xml version="1.0" encoding="UTF-8" standalone="no"?>
<!-- Created with Inkscape (http://www.inkscape.org/) -->

<svg
   width="28"
   height="28"
   viewBox="0 0 7.4083332 7.4083335"
   version="1.1"
   id="svg5"
   sodipodi:docname="camera.svg"
   inkscape:version="1.1.2 (0a00cf5339, 2022-02-04)"
   xmlns:inkscape="http://www.inkscape.org/namespaces/inkscape"
   xmlns:sodipodi="http://sodipodi.sourceforge.net/DTD/sodipodi-0.dtd"
   xmlns="http://www.w3.org/2000/svg"
   xmlns:svg="http://www.w3.org/2000/svg">
  <sodipodi:namedview
     id="namedview7"
     pagecolor="#ffffff"
     bordercolor="#666666"
     borderopacity="1.0"
     inkscape:pageshadow="2"
     inkscape:pageopacity="0.0"
     inkscape:pagecheckerboard="0"
     inkscape:document-units="mm"
     showgrid="false"
     units="px"
     width="24px"
     inkscape:zoom="7.1734607"
     inkscape:cx="-12.406843"
     inkscape:cy="17.843549"
     inkscape:window-width="1920"
     inkscape:window-height="1029"
     inkscape:window-x="0"
     inkscape:window-y="22"
     inkscape:window-maximized="1"
     inkscape:current-layer="layer1" />
  <defs
     id="defs2" />
  <g
     inkscape:label="Layer 1"
     inkscape:groupmode="layer"
     id="layer1">
    <path
       id="rect848"
       style="fill:#f3c969;stroke-width:0.500001;fill-opacity:1"
       d="M 1 0 C 0.44771545 -2.761424e-08 -2.7614241e-08 0.44771545 0 1 L 0 27.025391 C 0.013472723 27.557169 0.4428305 27.986527 0.97460938 28 L 27.025391 28 C 27.557169 27.986527 27.986527 27.557169 28 27.025391 L 28 0.97460938 C 27.986527 0.4428305 27.557169 0.013472723 27.025391 0 L 1 0 z M 17.974609 7 L 20.025391 7 C 20.557169 7.0134725 20.986527 7.4428302 21 7.9746094 L 21 8.0253906 C 21.013473 8.5571694 21.442831 8.9865275 21.974609 9 L 22.025391 9 C 22.557169 9.0134729 22.986527 9.4428314 23 9.9746094 L 23 20.025391 C 22.986527 20.557169 22.557169 20.986527 22.025391 21 L 5.9746094 21 C 5.4428302 20.986527 5.0134729 20.557169 5 20.025391 L 5 9.9746094 C 5.0134729 9.4428314 5.4428302 9.0134729 5.9746094 9 L 16.025391 9 C 16.557169 8.9865275 16.986527 8.5571686 17 8.0253906 L 17 7.9746094 C 17.013473 7.4428302 17.442831 7.0134725 17.974609 7 z M 6.9746094 10 C 6.4428302 10.013473 6.0134725 10.442831 6 10.974609 L 6 11.025391 C 6.0134725 11.557169 6.4428302 11.986527 6.9746094 12 L 8.0253906 12 C 8.5571694 11.986527 8.9865271 11.557169 9 11.025391 L 9 10.974609 C 8.9865271 10.442831 8.5571694 10.013455 8.0253906 10 L 6.9746094 10 z M 10.974609 12 C 10.442831 12.013473 10.013473 12.442831 10 12.974609 L 10 19.025391 C 10.013473 19.557168 10.442831 19.986527 10.974609 20 L 17.025391 20 C 17.557169 19.986527 17.986527 19.557168 18 19.025391 L 18 12.974609 C 17.986527 12.442831 17.557169 12.013455 17.025391 12 L 10.974609 12 z M 11.974609 13 L 16.025391 13 C 16.557169 13.013473 16.986527 13.442831 17 13.974609 L 17 18.025391 C 16.986527 18.557169 16.557169 18.986527 16.025391 19 L 11.974609 19 C 11.442831 18.986527 11.013455 18.557169 11 18.025391 L 11 13.974609 C 11.013473 13.442831 11.442831 13.013473 11.974609 13 z M 12.974609 14 C 12.442831 14.013473 12.013473 14.442831 12 14.974609 L 12 17.025391 C 12.013473 17.557169 12.442831 17.986527 12.974609 18 L 15.025391 18 C 15.557169 17.986527 15.986527 17.557169 16 17.025391 L 16 14.974609 C 15.986527 14.442831 15.557169 14.013455 15.025391 14 L 12.974609 14 z "
       transform="scale(0.26458333)" />
    <path
       id="rect5345-6"
       style="fill:#5b4c4c;fill-opacity:1;stroke-width:0.132292"
       d="m 8.5656403,1.2418759 v 0.2645833 c 0,-0.1461253 0.118458,-0.2645833 0.2645833,-0.2645833 z m 0,0.2645833 c 0,-0.1763889 0,-0.088194 0,0 z"
       sodipodi:nodetypes="cccccc" />
  </g>
</svg>
