<?xml version="1.0" encoding="UTF-8" standalone="no"?>
<!-- Created with Inkscape (http://www.inkscape.org/) -->

<svg
   width="28"
   height="28"
   viewBox="0 0 7.4083332 7.4083335"
   version="1.1"
   id="svg5"
   sodipodi:docname="coordinate.svg"
   inkscape:version="1.1.2 (0a00cf5339, 2022-02-04)"
   xmlns:inkscape="http://www.inkscape.org/namespaces/inkscape"
   xmlns:sodipodi="http://sodipodi.sourceforge.net/DTD/sodipodi-0.dtd"
   xmlns="http://www.w3.org/2000/svg"
   xmlns:svg="http://www.w3.org/2000/svg">
  <sodipodi:namedview
     id="namedview7"
     pagecolor="#ffffff"
     bordercolor="#666666"
     borderopacity="1.0"
     inkscape:pageshadow="2"
     inkscape:pageopacity="0.0"
     inkscape:pagecheckerboard="0"
     inkscape:document-units="mm"
     showgrid="false"
     units="px"
     width="24px"
     inkscape:zoom="7.1734607"
     inkscape:cx="-12.406843"
     inkscape:cy="17.843549"
     inkscape:window-width="1920"
     inkscape:window-height="1029"
     inkscape:window-x="0"
     inkscape:window-y="22"
     inkscape:window-maximized="1"
     inkscape:current-layer="layer1" />
  <defs
     id="defs2" />
  <g
     inkscape:label="Layer 1"
     inkscape:groupmode="layer"
     id="layer1">
    <path
       id="rect848"
       style="fill:#f3c969;stroke-width:0.500001;fill-opacity:1"
       d="M 1 0 C 0.44771543 -2.761424e-08 -2.7614241e-08 0.44771543 0 1 L 0 27.025391 C 0.013472723 27.557169 0.4428305 27.986527 0.97460938 28 L 27.025391 28 C 27.557169 27.986527 27.986527 27.557169 28 27.025391 L 28 0.97460938 C 27.986527 0.4428305 27.557169 0.013472723 27.025391 0 L 1 0 z M 7.9746094 5 L 8.0253906 5 C 8.5571686 5.0134729 8.9865271 5.4428298 9 5.9746094 L 9 6.0253906 L 9 9 L 9 12.025391 C 9.0134727 12.557169 9.4428305 12.986527 9.9746094 13 L 10.025391 13 C 10.557169 13.013473 10.986527 13.442831 11 13.974609 L 11 14.025391 C 10.986527 14.557169 10.557169 14.986527 10.025391 15 L 9.9746094 15 C 9.4428305 15.013473 9.0134727 15.442831 9 15.974609 L 9 18.025391 C 9.0134727 18.557169 9.4428305 18.986527 9.9746094 19 L 15.025391 19 C 15.557169 18.986527 15.986527 18.557169 16 18.025391 L 16 17.974609 C 16.013473 17.442831 16.442831 17.013473 16.974609 17 L 17.025391 17 C 17.557169 17.013473 17.986527 17.442831 18 17.974609 L 18 18.025391 C 18.013473 18.557169 18.442831 18.986527 18.974609 19 L 19 19 L 21.974609 19 L 22.025391 19 C 22.55717 19.013473 22.986527 19.442831 23 19.974609 L 23 20.025391 C 22.986527 20.557168 22.557169 20.986527 22.025391 21 L 21.974609 21 L 19 21 L 18.974609 21 C 18.442831 21.013473 18.013473 21.442831 18 21.974609 L 18 22.025391 C 17.986527 22.557169 17.557169 22.986527 17.025391 23 L 16.974609 23 C 16.442831 22.986527 16.013473 22.557169 16 22.025391 L 16 21.974609 C 15.986527 21.442831 15.557169 21.013473 15.025391 21 L 9.9746094 21 L 7.9746094 21 C 7.4428305 20.986527 7.0134727 20.557169 7 20.025391 L 7 18.025391 L 7 15.974609 C 6.9865273 15.442831 6.5571695 15.013473 6.0253906 15 L 5.9746094 15 C 5.4428305 14.986527 5.0134727 14.557169 5 14.025391 L 5 13.974609 C 5.0134727 13.442831 5.4428305 13.013473 5.9746094 13 L 6.0253906 13 C 6.5571695 12.986527 6.9865273 12.557169 7 12.025391 L 7 9 L 7 6.0253906 L 7 5.9746094 C 7.0134733 5.4428298 7.4428314 5.0134729 7.9746094 5 z M 17 13 A 0.99999994 0.99999994 0 0 1 18 14 A 0.99999994 0.99999994 0 0 1 17 15 A 0.99999994 0.99999994 0 0 1 16 14 A 0.99999994 0.99999994 0 0 1 17 13 z "
       transform="scale(0.26458333)" />
    <path
       id="rect5345-6"
       style="fill:#5b4c4c;fill-opacity:1;stroke-width:0.132292"
       d="m 8.5656403,1.2418759 v 0.2645833 c 0,-0.1461253 0.118458,-0.2645833 0.2645833,-0.2645833 z m 0,0.2645833 c 0,-0.1763889 0,-0.088194 0,0 z"
       sodipodi:nodetypes="cccccc" />
  </g>
</svg>
