<?xml version="1.0" encoding="UTF-8" standalone="no"?>
<!-- Created with Inkscape (http://www.inkscape.org/) -->

<svg
   width="28"
   height="28"
   viewBox="0 0 7.4083332 7.4083335"
   version="1.1"
   id="svg5"
   sodipodi:docname="date.svg"
   inkscape:version="1.1.2 (0a00cf5339, 2022-02-04)"
   xmlns:inkscape="http://www.inkscape.org/namespaces/inkscape"
   xmlns:sodipodi="http://sodipodi.sourceforge.net/DTD/sodipodi-0.dtd"
   xmlns="http://www.w3.org/2000/svg"
   xmlns:svg="http://www.w3.org/2000/svg">
  <sodipodi:namedview
     id="namedview7"
     pagecolor="#ffffff"
     bordercolor="#666666"
     borderopacity="1.0"
     inkscape:pageshadow="2"
     inkscape:pageopacity="0.0"
     inkscape:pagecheckerboard="0"
     inkscape:document-units="mm"
     showgrid="false"
     units="px"
     width="24px"
     inkscape:zoom="4.977916"
     inkscape:cx="-26.918895"
     inkscape:cy="-3.4150837"
     inkscape:window-width="1920"
     inkscape:window-height="1029"
     inkscape:window-x="0"
     inkscape:window-y="22"
     inkscape:window-maximized="1"
     inkscape:current-layer="layer1" />
  <defs
     id="defs2" />
  <g
     inkscape:label="Layer 1"
     inkscape:groupmode="layer"
     id="layer1">
    <path
       id="rect848"
       style="fill:#f3c969;stroke-width:0.500001;fill-opacity:1"
       d="M 1 0 C 0.44771529 -2.761424e-08 -2.7614241e-08 0.44771529 0 1 L 0 27.025391 C 0.013472723 27.557169 0.4428305 27.986527 0.97460938 28 L 27.025391 28 C 27.557169 27.986527 27.986527 27.557169 28 27.025391 L 28 0.97460938 C 27.986527 0.4428305 27.557169 0.013472723 27.025391 0 L 1 0 z M 5.9746094 5 L 7.0253906 5 C 7.5571695 5.0134727 7.9865273 5.4428305 8 5.9746094 L 8 7.0253906 C 8.0134727 7.5571695 8.4428305 7.9865273 8.9746094 8 L 11.025391 8 C 11.557169 7.9865273 11.986527 7.5571695 12 7.0253906 L 12 5.9746094 C 12.013473 5.4428305 12.442831 5.0134727 12.974609 5 L 15.025391 5 C 15.557169 5.0134727 15.986527 5.4428305 16 5.9746094 L 16 7.0253906 C 16.013473 7.5571695 16.442831 7.9865273 16.974609 8 L 19.025391 8 C 19.557169 7.9865273 19.986527 7.5571695 20 7.0253906 L 20 5.9746094 C 20.013473 5.4428305 20.442831 5.0134727 20.974609 5 L 22.025391 5 C 22.557169 5.0134727 22.986527 5.4428305 23 5.9746094 L 23 22.025391 C 22.986527 22.557169 22.557169 22.986527 22.025391 23 L 5.9746094 23 C 5.4428305 22.986527 5.0134727 22.557169 5 22.025391 L 5 5.9746094 C 5.0134727 5.4428305 5.4428305 5.0134727 5.9746094 5 z M 9.9746094 5 L 10.025391 5 C 10.557169 5.0134727 10.986527 5.4428305 11 5.9746094 L 11 6.0253906 C 10.986527 6.5571686 10.557169 6.9865271 10.025391 7 L 9.9746094 7 C 9.4428306 6.9865271 9.0134551 6.5571686 9 6.0253906 L 9 5.9746094 C 9.0134727 5.4428305 9.4428305 5.0134727 9.9746094 5 z M 17.974609 5 L 18.025391 5 C 18.557169 5.0134727 18.986527 5.4428305 19 5.9746094 L 19 6.0253906 C 18.986527 6.5571686 18.557169 6.9865271 18.025391 7 L 17.974609 7 C 17.442831 6.9865271 17.013455 6.5571686 17 6.0253906 L 17 5.9746094 C 17.013473 5.4428305 17.442831 5.0134727 17.974609 5 z "
       transform="scale(0.26458333)" />
    <path
       id="rect5345-6"
       style="fill:#5b4c4c;fill-opacity:1;stroke-width:0.132292"
       d="m 8.5656403,1.2418759 v 0.2645833 c 0,-0.1461253 0.118458,-0.2645833 0.2645833,-0.2645833 z m 0,0.2645833 c 0,-0.1763889 0,-0.088194 0,0 z"
       sodipodi:nodetypes="cccccc" />
    <path
       id="rect8995"
       style="fill:#f3c969;fill-opacity:1;stroke-width:0.132294"
       d="M 2.1099487,2.6458333 C 1.9692489,2.6493981 1.855648,2.762999 1.8520833,2.9036986 v 0.013436 C 1.855648,3.0578343 1.9692489,3.1714353 2.1099487,3.175 H 2.38125 V 4.5046347 C 2.3776853,4.6453343 2.2640844,4.7589352 2.1233846,4.7625 H 2.1099487 C 1.9692489,4.7660647 1.855648,4.8796657 1.8520833,5.0203653 v 0.013436 c 0.00356,0.1406996 0.1171656,0.2543006 0.2578654,0.2578653 H 3.181718 C 3.3224176,5.2881019 3.4360186,5.1745009 3.4395833,5.0338013 V 5.0203653 C 3.4360186,4.8796657 3.3224176,4.7660647 3.181718,4.7625 H 3.1682819 C 3.0275823,4.7589352 2.9139814,4.6453343 2.9104166,4.5046347 V 2.9036986 C 2.9068519,2.762999 2.7932509,2.6493981 2.6525513,2.6458333 H 2.38125 Z" />
    <path
       id="rect9235"
       style="fill:#f3c969;fill-opacity:1;stroke-width:0.132292"
       d="M 4.3919798,2.6458334 C 4.2512802,2.6493981 4.1376793,2.7629991 4.1341145,2.9036989 V 3.175 3.7041667 3.9754681 c 0.00356,0.1406998 0.1171657,0.2543008 0.2578653,0.2578652 h 0.2780194 c 0.1406996,0.00356 0.2543006,0.1171657 0.2578653,0.2578656 v 0.013436 C 4.9242998,4.6453346 4.8106988,4.7589355 4.6699992,4.7625 H 4.3986979 c -0.141559,0 -0.257497,0.1113496 -0.2645834,0.2511475 v 0.027389 c 0.00686,0.1352877 0.1153425,0.2437724 0.2506308,0.2506302 H 5.2058837 C 5.3456816,5.2845803 5.4570312,5.1686423 5.4570312,5.0270833 V 4.7625 4.2333333 3.9620322 C 5.4534665,3.8213324 5.3398655,3.7077314 5.1991659,3.7041667 H 4.9211465 C 4.7804469,3.7006022 4.6668459,3.5870013 4.6632812,3.4463014 V 3.4328656 C 4.6668459,3.2921657 4.7804469,3.1785648 4.9211465,3.175 H 5.1991659 C 5.3398655,3.1714356 5.4534665,3.0578346 5.4570312,2.9171347 V 2.9036989 C 5.4534665,2.7629991 5.3398655,2.6493981 5.1991659,2.6458334 H 4.6632812 Z" />
  </g>
</svg>
