<?xml version="1.0" encoding="UTF-8" standalone="no"?>
<!-- Created with Inkscape (http://www.inkscape.org/) -->

<svg
   width="28"
   height="28"
   viewBox="0 0 7.4083332 7.4083335"
   version="1.1"
   id="svg5"
   sodipodi:docname="function.svg"
   inkscape:version="1.1.2 (0a00cf5339, 2022-02-04)"
   xmlns:inkscape="http://www.inkscape.org/namespaces/inkscape"
   xmlns:sodipodi="http://sodipodi.sourceforge.net/DTD/sodipodi-0.dtd"
   xmlns="http://www.w3.org/2000/svg"
   xmlns:svg="http://www.w3.org/2000/svg">
  <sodipodi:namedview
     id="namedview7"
     pagecolor="#ffffff"
     bordercolor="#666666"
     borderopacity="1.0"
     inkscape:pageshadow="2"
     inkscape:pageopacity="0.0"
     inkscape:pagecheckerboard="0"
     inkscape:document-units="mm"
     showgrid="false"
     units="px"
     width="24px"
     inkscape:zoom="15.447223"
     inkscape:cx="12.494155"
     inkscape:cy="14.371515"
     inkscape:window-width="1920"
     inkscape:window-height="1029"
     inkscape:window-x="0"
     inkscape:window-y="22"
     inkscape:window-maximized="1"
     inkscape:current-layer="layer1"
     showguides="true" />
  <defs
     id="defs2" />
  <g
     inkscape:label="Layer 1"
     inkscape:groupmode="layer"
     id="layer1">
    <path
       id="rect848"
       style="fill:#f3c969;stroke-width:0.500001;fill-opacity:1"
       d="M 1 0 C 0.4477155 -2.761424e-08 -2.7614241e-08 0.4477155 0 1 L 0 27.025391 C 0.013472723 27.557169 0.4428305 27.986527 0.97460938 28 L 27.025391 28 C 27.557169 27.986527 27.986527 27.557169 28 27.025391 L 28 0.97460938 C 27.986527 0.4428305 27.557169 0.013472723 27.025391 0 L 1 0 z M 5.9746094 8 L 7 8 L 10.025391 8 C 10.557169 8.0134727 10.986527 8.4428305 11 8.9746094 L 11 9.0253906 C 10.986527 9.5571695 10.557169 9.9865273 10.025391 10 L 7.9746094 10 C 7.4428305 10.013473 7.0134727 10.442831 7 10.974609 L 7 11.025391 C 7.0134727 11.557169 7.4428305 11.986527 7.9746094 12 L 10.025391 12 C 10.557169 12.013473 10.986527 12.442831 11 12.974609 L 11 13.025391 C 10.986527 13.557169 10.557169 13.986527 10.025391 14 L 7.9746094 14 C 7.4428305 14.013473 7.0134727 14.442831 7 14.974609 L 7 19.025391 C 6.9865273 19.557169 6.5571695 19.986527 6.0253906 20 L 5.9746094 20 C 5.4428305 19.986527 5.0134727 19.557169 5 19.025391 L 5 8.9746094 C 5.0134727 8.4428305 5.4428305 8.0134727 5.9746094 8 z M 13.974609 12 L 15 12 L 16.025391 12 C 16.557169 12.013473 16.986527 12.442831 17 12.974609 L 17 13.025391 C 16.986527 13.557169 16.557169 13.986527 16.025391 14 L 15.974609 14 C 15.442831 14.013473 15.013473 14.442831 15 14.974609 L 15 17.025391 C 15.013473 17.557169 15.442831 17.986527 15.974609 18 L 16.025391 18 C 16.557169 18.013473 16.986527 18.442831 17 18.974609 L 17 19.025391 C 16.986527 19.557169 16.557169 19.986527 16.025391 20 L 15 20 L 13.974609 20 C 13.442831 19.986527 13.013473 19.557169 13 19.025391 L 13 18 L 13 14 L 13 12.974609 C 13.013473 12.442831 13.442831 12.013473 13.974609 12 z M 19.974609 12 L 21 12 L 22.025391 12 C 22.557169 12.013473 22.986527 12.442831 23 12.974609 L 23 14 L 23 18 L 23 19.025391 C 22.986527 19.557169 22.557169 19.986527 22.025391 20 L 19.974609 20 C 19.442831 19.986527 19.013473 19.557169 19 19.025391 L 19 18.974609 C 19.013473 18.442831 19.442831 18.013473 19.974609 18 L 20.025391 18 C 20.557169 17.986527 20.986527 17.557169 21 17.025391 L 21 14.974609 C 20.986527 14.442831 20.557169 14.013473 20.025391 14 L 19.974609 14 C 19.442831 13.986527 19.013473 13.557169 19 13.025391 L 19 12.974609 C 19.013473 12.442831 19.442831 12.013473 19.974609 12 z "
       transform="scale(0.26458333)" />
    <path
       id="rect5345-6"
       style="fill:#5b4c4c;fill-opacity:1;stroke-width:0.132292"
       d="m 8.5656403,1.2418759 v 0.2645833 c 0,-0.1461253 0.118458,-0.2645833 0.2645833,-0.2645833 z m 0,0.2645833 c 0,-0.1763889 0,-0.088194 0,0 z"
       sodipodi:nodetypes="cccccc" />
  </g>
</svg>
