<?xml version="1.0" encoding="UTF-8" standalone="no"?>
<!-- Created with Inkscape (http://www.inkscape.org/) -->

<svg
   width="28"
   height="28"
   viewBox="0 0 7.4083332 7.4083335"
   version="1.1"
   id="svg5"
   sodipodi:docname="group.svg"
   inkscape:version="1.1.2 (0a00cf5339, 2022-02-04)"
   xmlns:inkscape="http://www.inkscape.org/namespaces/inkscape"
   xmlns:sodipodi="http://sodipodi.sourceforge.net/DTD/sodipodi-0.dtd"
   xmlns="http://www.w3.org/2000/svg"
   xmlns:svg="http://www.w3.org/2000/svg">
  <sodipodi:namedview
     id="namedview7"
     pagecolor="#21222c"
     bordercolor="#666666"
     borderopacity="1.0"
     inkscape:pageshadow="2"
     inkscape:pageopacity="0"
     inkscape:pagecheckerboard="0"
     inkscape:document-units="px"
     showgrid="false"
     units="px"
     width="24px"
     inkscape:zoom="11.668743"
     inkscape:cx="-0.42849516"
     inkscape:cy="18.768088"
     inkscape:window-width="1920"
     inkscape:window-height="1029"
     inkscape:window-x="0"
     inkscape:window-y="22"
     inkscape:window-maximized="1"
     inkscape:current-layer="layer1" />
  <defs
     id="defs2" />
  <g
     inkscape:label="Layer 1"
     inkscape:groupmode="layer"
     id="layer1">
    <path
       id="rect848"
       style="fill:#daf0f6;stroke-width:0.500001;fill-opacity:1"
       d="M 1 0 C 0.44771548 -2.761424e-08 -2.7614241e-08 0.44771548 0 1 L 0 27.025391 C 0.013472723 27.557169 0.4428305 27.986527 0.97460938 28 L 27.025391 28 C 27.557169 27.986527 27.986527 27.557169 28 27.025391 L 28 0.97460938 C 27.986527 0.4428305 27.557169 0.013472723 27.025391 0 L 1 0 z M 5.9746094 7 L 9.0253906 7 C 9.5571695 7.0134727 9.9865273 7.4428305 10 7.9746094 L 10 10.025391 C 10.013473 10.557169 10.442831 10.986527 10.974609 11 L 17.025391 11 C 17.557169 10.986527 17.986527 10.557169 18 10.025391 L 18 7.9746094 C 18.013473 7.4428305 18.442831 7.0134727 18.974609 7 L 22.025391 7 C 22.557169 7.0134727 22.986527 7.4428305 23 7.9746094 L 23 20.025391 C 22.986527 20.557169 22.557169 20.986527 22.025391 21 L 5.9746094 21 C 5.4428305 20.986527 5.0134727 20.557169 5 20.025391 L 5 7.9746094 C 5.0134727 7.4428305 5.4428305 7.0134727 5.9746094 7 z M 8.9746094 14 C 8.4428305 14.013473 8.0134727 14.442831 8 14.974609 L 8 15.025391 C 8.0134727 15.557169 8.4428305 15.986527 8.9746094 16 L 19.025391 16 C 19.557169 15.986527 19.986527 15.557169 20 15.025391 L 20 14.974609 C 19.986527 14.442831 19.557169 14.013473 19.025391 14 L 8.9746094 14 z "
       transform="scale(0.26458333)" />
    <path
       id="rect5345-6"
       style="fill:#5b4c4c;fill-opacity:1;stroke-width:0.132292"
       d="m 8.5656403,1.2418759 v 0.2645833 c 0,-0.1461253 0.118458,-0.2645833 0.2645833,-0.2645833 z m 0,0.2645833 c 0,-0.1763889 0,-0.088194 0,0 z"
       sodipodi:nodetypes="cccccc" />
  </g>
</svg>
