<?xml version="1.0" encoding="UTF-8" standalone="no"?>
<!-- Created with Inkscape (http://www.inkscape.org/) -->

<svg
   width="28"
   height="28"
   viewBox="0 0 7.4083332 7.4083335"
   version="1.1"
   id="svg5"
   sodipodi:docname="identifier.svg"
   inkscape:version="1.2 (dc2aedaf03, 2022-05-15)"
   xmlns:inkscape="http://www.inkscape.org/namespaces/inkscape"
   xmlns:sodipodi="http://sodipodi.sourceforge.net/DTD/sodipodi-0.dtd"
   xmlns="http://www.w3.org/2000/svg"
   xmlns:svg="http://www.w3.org/2000/svg">
  <sodipodi:namedview
     id="namedview7"
     pagecolor="#21222c"
     bordercolor="#666666"
     borderopacity="1.0"
     inkscape:pageshadow="2"
     inkscape:pageopacity="0"
     inkscape:pagecheckerboard="0"
     inkscape:document-units="px"
     showgrid="false"
     units="px"
     width="24px"
     inkscape:zoom="14.748046"
     inkscape:cx="-1.491723"
     inkscape:cy="12.815257"
     inkscape:window-width="1920"
     inkscape:window-height="1019"
     inkscape:window-x="0"
     inkscape:window-y="32"
     inkscape:window-maximized="1"
     inkscape:current-layer="layer1"
     inkscape:showpageshadow="2"
     inkscape:deskcolor="#21222c" />
  <defs
     id="defs2" />
  <g
     inkscape:label="Layer 1"
     inkscape:groupmode="layer"
     id="layer1">
    <path
       id="rect848"
       style="fill:#daf0f6;stroke-width:0.500001;fill-opacity:1"
       d="M 1 0 C 0.44771719 -2.7614156e-08 -2.7614158e-08 0.44771719 0 1 L 0 27.025391 C 0.013472687 27.557166 0.4428321 27.986527 0.97460939 28 L 27.025391 28 C 27.557166 27.986527 27.986527 27.557166 28 27.025391 L 28 0.97460939 C 27.986527 0.4428321 27.557166 0.013472687 27.025391 0 L 1 0 z M 5.9746095 7.0000001 L 9.0253908 7.0000001 C 9.5571679 7.0134728 9.9865279 7.4428321 10 7.9746095 L 10 10.025391 C 10.01347 10.557166 10.442832 10.986527 10.97461 11 L 17.025391 11 C 17.557166 10.986527 17.986527 10.557166 18 10.025391 L 18 7.9746095 C 18.01347 7.4428321 18.442832 7.0134728 18.97461 7.0000001 L 22.025391 7.0000001 C 22.557166 7.0134728 22.986527 7.4428321 23 7.9746095 L 23 20.025391 C 22.986527 20.557166 22.557166 20.986527 22.025391 21 L 5.9746095 21 C 5.4428321 20.986527 5.0134728 20.557166 5.0000001 20.025391 L 5.0000001 7.9746095 C 5.0134728 7.4428321 5.4428321 7.0134728 5.9746095 7.0000001 z "
       transform="scale(0.26458333)" />
    <path
       id="rect5345-6"
       style="fill:#5b4c4c;fill-opacity:1;stroke-width:0.132292"
       d="m 8.5656403,1.2418759 v 0.2645833 c 0,-0.1461253 0.118458,-0.2645833 0.2645833,-0.2645833 z m 0,0.2645833 c 0,-0.1763889 0,-0.088194 0,0 z"
       sodipodi:nodetypes="cccccc" />
    <path
       style="fill:#f3c969;stroke-width:0.500001;fill-opacity:1"
       d="M 17.47461,15 C 17.209696,15.013342 17,15.231659 17,15.5 17,15.777 17.222999,16 17.5,16 H 18 v 2 h -0.5 c -0.276999,0 -0.5,0.223003 -0.5,0.5 0,0.277 0.222999,0.5 0.5,0.5 h 0.97461 c 0.0085,4.31e-4 0.01674,0 0.02539,0 0.02197,0 0.04325,-0.0012 0.06445,-0.0039 0.0042,-5.28e-4 0.0076,-0.0013 0.01172,-0.002 0.0038,-5.83e-4 0.0079,-0.0013 0.01172,-0.002 0.0041,-7.31e-4 0.0096,-0.0011 0.01367,-0.002 0.0042,-8.33e-4 0.0076,-0.003 0.01172,-0.0039 0.004,-9.27e-4 0.0077,-9.28e-4 0.01172,-0.002 0.0041,-0.001 0.0077,-0.0028 0.01172,-0.0039 0.004,-0.0011 0.0078,-7.39e-4 0.01172,-0.002 0.0039,-0.0012 0.0078,-0.0026 0.01172,-0.0039 0.0039,-0.0013 0.0079,-0.0025 0.01172,-0.0039 0.0039,-0.0014 0.0078,-0.0043 0.01172,-0.0059 0.0038,-0.0015 0.008,-0.0023 0.01172,-0.0039 0.0042,-0.0017 0.0076,-0.004 0.01172,-0.0059 0.0037,-0.0017 0.0061,-0.0022 0.0098,-0.0039 0.105294,-0.05059 0.189911,-0.137584 0.238281,-0.24414 0.0017,-0.0037 0.0043,-0.008 0.0059,-0.01172 0.0015,-0.0036 0.0025,-0.008 0.0039,-0.01172 0.0015,-0.0038 0.0045,-0.0079 0.0059,-0.01172 0.0014,-0.0038 0.0026,-0.0078 0.0039,-0.01172 0.0013,-0.0039 0.0027,-0.0078 0.0039,-0.01172 0.0012,-0.0039 8.53e-4,-0.0078 0.002,-0.01172 0.0011,-0.004 0.0029,-0.0077 0.0039,-0.01172 0.001,-0.0039 0.001,-0.0078 0.002,-0.01172 9.15e-4,-0.004 0.0031,-0.0076 0.0039,-0.01172 8.92e-4,-0.0044 0.0012,-0.0092 0.002,-0.01367 7.3e-4,-0.0041 0.0013,-0.0076 0.002,-0.01172 5.83e-4,-0.0038 0.0015,-0.0079 0.002,-0.01172 5.28e-4,-0.0042 0.0015,-0.0095 0.002,-0.01367 3.9e-4,-0.0039 -3.02e-4,-0.0078 0,-0.01172 3.21e-4,-0.0043 0.0017,-0.0094 0.002,-0.01367 1.99e-4,-0.0039 -1.07e-4,-0.0077 0,-0.01172 1.09e-4,-0.0043 0,-0.0093 0,-0.01367 v -0.01367 c -1.08e-4,-0.0043 2.16e-4,-0.0074 0,-0.01172 v -2.949219 c 4.31e-4,-0.0085 0,-0.01674 0,-0.02539 0,-0.0047 1.26e-4,-0.0091 0,-0.01367 -1.08e-4,-0.0043 2.16e-4,-0.0074 0,-0.01172 -2.33e-4,-0.0046 -0.0016,-0.0091 -0.002,-0.01367 -3.21e-4,-0.0042 4.25e-4,-0.0075 0,-0.01172 -4.57e-4,-0.0045 -0.0014,-0.0092 -0.002,-0.01367 -5.28e-4,-0.0042 -0.0013,-0.0076 -0.002,-0.01172 -5.83e-4,-0.0038 -0.0013,-0.0079 -0.002,-0.01172 -7.31e-4,-0.0041 -0.0011,-0.0096 -0.002,-0.01367 -8.33e-4,-0.0042 -0.003,-0.0076 -0.0039,-0.01172 -9.27e-4,-0.004 -9.28e-4,-0.0077 -0.002,-0.01172 -0.001,-0.0041 -0.0028,-0.0077 -0.0039,-0.01172 -0.0011,-0.004 -7.39e-4,-0.0078 -0.002,-0.01172 -0.0012,-0.0039 -0.0026,-0.0078 -0.0039,-0.01172 -0.0013,-0.0039 -0.0025,-0.0079 -0.0039,-0.01172 -0.0014,-0.0039 -0.0043,-0.0078 -0.0059,-0.01172 -0.0015,-0.0038 -0.0023,-0.008 -0.0039,-0.01172 -0.0017,-0.0042 -0.004,-0.0076 -0.0059,-0.01172 -0.0017,-0.0037 -0.0022,-0.0061 -0.0039,-0.0098 -0.05059,-0.105293 -0.137584,-0.189911 -0.24414,-0.238281 -0.0037,-0.0017 -0.008,-0.0043 -0.01172,-0.0059 -0.0036,-0.0015 -0.008,-0.0025 -0.01172,-0.0039 -0.0038,-0.0015 -0.0079,-0.0045 -0.01172,-0.0059 -0.0038,-0.0014 -0.0078,-0.0026 -0.01172,-0.0039 -0.0039,-0.0013 -0.0078,-0.0027 -0.01172,-0.0039 -0.0039,-0.0012 -0.0078,-8.54e-4 -0.01172,-0.002 -0.004,-0.0011 -0.0077,-0.0029 -0.01172,-0.0039 -0.0039,-0.001 -0.0078,-0.001 -0.01172,-0.002 -0.004,-9.14e-4 -0.0076,-0.0031 -0.01172,-0.0039 -0.0044,-8.92e-4 -0.0092,-0.0012 -0.01367,-0.002 -0.0041,-7.31e-4 -0.0076,-0.0013 -0.01172,-0.002 -0.0038,-5.83e-4 -0.0079,-0.0015 -0.01172,-0.002 -0.0042,-5.28e-4 -0.0095,-0.0015 -0.01367,-0.002 -0.0084,-8.5e-4 -0.01685,-0.0015 -0.02539,-0.002 -0.0085,-4.3e-4 -0.01674,0 -0.02539,0 -0.0087,0 -0.01685,-4.3e-4 -0.02539,0 H 17.5 c -0.0087,0 -0.01685,-4.3e-4 -0.02539,0 z"
       transform="scale(0.26458333)"
       id="path1338" />
    <path
       style="fill:#f3c969;stroke-width:0.500001;fill-opacity:1"
       d="m 14.47461,15 c -0.0085,4.31e-4 -0.01696,0.0011 -0.02539,0.002 -0.0042,4.26e-4 -0.0095,0.0014 -0.01367,0.002 -0.0039,4.96e-4 -0.0079,0.0014 -0.01172,0.002 -0.0042,6.3e-4 -0.0076,0.0012 -0.01172,0.002 -0.0044,7.77e-4 -0.0093,0.0011 -0.01367,0.002 -0.0041,8.3e-4 -0.0077,0.003 -0.01172,0.0039 -0.004,9.11e-4 -0.0078,9.49e-4 -0.01172,0.002 -0.004,0.001 -0.0077,0.0028 -0.01172,0.0039 -0.0039,0.0011 -0.0079,7.64e-4 -0.01172,0.002 -0.0039,0.0012 -0.0079,0.0026 -0.01172,0.0039 -0.0039,0.0013 -0.0079,0.0025 -0.01172,0.0039 -0.0038,0.0014 -0.0079,0.0044 -0.01172,0.0059 -0.0037,0.0014 -0.0081,0.0024 -0.01172,0.0039 -0.0037,0.0016 -0.008,0.0042 -0.01172,0.0059 -0.106556,0.04837 -0.193552,0.132988 -0.244141,0.238281 -0.0018,0.0036 -0.0023,0.0061 -0.0039,0.0098 -0.0019,0.0041 -0.0041,0.0076 -0.0059,0.01172 -0.0016,0.0037 -0.0024,0.0079 -0.0039,0.01172 -0.0015,0.0039 -0.0044,0.0078 -0.0059,0.01172 -0.0014,0.0038 -0.0026,0.0078 -0.0039,0.01172 -0.0013,0.0039 -0.0027,0.0078 -0.0039,0.01172 -0.0012,0.0039 -8.34e-4,0.0077 -0.002,0.01172 -0.0011,0.004 -0.0029,0.0076 -0.0039,0.01172 -0.001,0.004 -0.001,0.0077 -0.002,0.01172 -9.48e-4,0.0041 -0.0031,0.0076 -0.0039,0.01172 -8.3e-4,0.0041 -0.0012,0.0096 -0.002,0.01367 -6.69e-4,0.0038 -0.0014,0.0079 -0.002,0.01172 -6.3e-4,0.0042 -0.0014,0.0075 -0.002,0.01172 -5.76e-4,0.0045 -0.0015,0.0091 -0.002,0.01367 -4.25e-4,0.0042 3.21e-4,0.0075 0,0.01172 -3.56e-4,0.0046 -0.0017,0.009 -0.002,0.01367 -2.15e-4,0.0043 1.08e-4,0.0074 0,0.01172 -1.25e-4,0.0046 0,0.009 0,0.01367 0,0.0087 -4.3e-4,0.01685 0,0.02539 v 2.949219 c -2.15e-4,0.0043 1.08e-4,0.0074 0,0.01172 V 18.5 c 0,0.0043 -1.08e-4,0.0094 0,0.01367 1.08e-4,0.004 -1.99e-4,0.0078 0,0.01172 2.15e-4,0.0043 0.0016,0.0094 0.002,0.01367 3.03e-4,0.0039 -3.9e-4,0.0079 0,0.01172 4.26e-4,0.0042 0.0014,0.0095 0.002,0.01367 4.96e-4,0.0039 0.0014,0.0079 0.002,0.01172 6.3e-4,0.0042 0.0012,0.0076 0.002,0.01172 7.77e-4,0.0044 0.0011,0.0093 0.002,0.01367 8.3e-4,0.0041 0.003,0.0077 0.0039,0.01172 9.12e-4,0.004 9.49e-4,0.0078 0.002,0.01172 0.001,0.004 0.0028,0.0078 0.0039,0.01172 0.0011,0.0039 7.63e-4,0.0079 0.002,0.01172 0.0012,0.0039 0.0026,0.0078 0.0039,0.01172 0.0013,0.0039 0.0025,0.0079 0.0039,0.01172 0.0014,0.0038 0.0044,0.0079 0.0059,0.01172 0.0014,0.0037 0.0024,0.0081 0.0039,0.01172 0.0016,0.0037 0.0042,0.008 0.0059,0.01172 0.04837,0.106556 0.132988,0.193551 0.238281,0.24414 0.0036,0.0018 0.0061,0.0023 0.0098,0.0039 0.0041,0.0019 0.0076,0.0041 0.01172,0.0059 0.0037,0.0016 0.0079,0.0024 0.01172,0.0039 0.0039,0.0015 0.0078,0.0044 0.01172,0.0059 0.0038,0.0014 0.0078,0.0026 0.01172,0.0039 0.0039,0.0013 0.0078,0.0027 0.01172,0.0039 0.0039,0.0012 0.0077,8.33e-4 0.01172,0.002 0.004,0.0011 0.0076,0.0029 0.01172,0.0039 0.004,0.001 0.0077,0.001 0.01172,0.002 0.0041,9.48e-4 0.0076,0.0031 0.01172,0.0039 0.0041,8.3e-4 0.0096,0.0012 0.01367,0.002 0.0038,6.68e-4 0.0079,0.0014 0.01172,0.002 0.0042,6.3e-4 0.0075,0.0014 0.01172,0.002 0.0212,0.0027 0.04249,0.0039 0.06445,0.0039 0.0087,0 0.01685,4.31e-4 0.02539,0 H 15.5 C 15.777001,19 16,18.777 16,18.5 16,18.223003 15.777,18 15.5,18 H 15 v -2 h 0.5 C 15.777001,16 16,15.777 16,15.5 16,15.223003 15.777,15 15.5,15 h -0.974609 c -0.0085,-4.3e-4 -0.01674,0 -0.02539,0 -0.0087,0 -0.01685,-4.3e-4 -0.02539,0 z"
       transform="scale(0.26458333)"
       id="path1336" />
    <path
       style="fill:#f3c969;stroke-width:0.500001;fill-opacity:1"
       d="m 9.4746095,13 c -0.2649136,0.01334 -0.4746094,0.231657 -0.4746094,0.5 0,0.0087 -4.305e-4,0.01685 0,0.02539 v 1.949219 c -4.305e-4,0.0085 0,0.01673 0,0.02539 0,0.0087 -4.305e-4,0.01685 0,0.02539 V 18.5 c 0,0.277 0.2230006,0.5 0.5,0.5 C 9.7769996,19 10,18.777 10,18.5 V 16 h 1.5 C 11.777,16 12,15.777 12,15.5 12,15.223001 11.777,15 11.5,15 H 10 v -1 h 1.5 C 11.777,14 12,13.777 12,13.5 12,13.223001 11.777,13 11.5,13 H 9.5253908 c -0.00855,-4.3e-4 -0.016734,0 -0.025391,0 -0.00866,0 -0.016845,-4.3e-4 -0.025391,0 z"
       transform="scale(0.26458333)"
       id="path1334" />
  </g>
</svg>
