<?xml version="1.0" encoding="UTF-8" standalone="no"?>
<!-- Created with Inkscape (http://www.inkscape.org/) -->

<svg
   width="28"
   height="28"
   viewBox="0 0 7.4083332 7.4083335"
   version="1.1"
   id="svg5"
   sodipodi:docname="number.svg"
   inkscape:version="1.1.2 (0a00cf5339, 2022-02-04)"
   xmlns:inkscape="http://www.inkscape.org/namespaces/inkscape"
   xmlns:sodipodi="http://sodipodi.sourceforge.net/DTD/sodipodi-0.dtd"
   xmlns="http://www.w3.org/2000/svg"
   xmlns:svg="http://www.w3.org/2000/svg">
  <sodipodi:namedview
     id="namedview7"
     pagecolor="#ffffff"
     bordercolor="#666666"
     borderopacity="1.0"
     inkscape:pageshadow="2"
     inkscape:pageopacity="0.0"
     inkscape:pagecheckerboard="0"
     inkscape:document-units="mm"
     showgrid="false"
     units="px"
     width="24px"
     inkscape:zoom="9.0878987"
     inkscape:cx="15.625174"
     inkscape:cy="-1.2104008"
     inkscape:window-width="1920"
     inkscape:window-height="1029"
     inkscape:window-x="0"
     inkscape:window-y="22"
     inkscape:window-maximized="1"
     inkscape:current-layer="layer1" />
  <defs
     id="defs2" />
  <g
     inkscape:label="Layer 1"
     inkscape:groupmode="layer"
     id="layer1">
    <path
       id="rect848"
       style="fill:#f3c969;stroke-width:0.500001;fill-opacity:1"
       d="M 1 0 C 0.44771527 -2.761424e-08 -2.7614241e-08 0.44771527 0 1 L 0 27.025391 C 0.013472723 27.557169 0.4428305 27.986527 0.97460938 28 L 27.025391 28 C 27.557169 27.986527 27.986527 27.557169 28 27.025391 L 28 0.97460938 C 27.986527 0.4428305 27.557169 0.013472723 27.025391 0 L 1 0 z M 10.949219 5 C 10.957477 4.9995876 10.9663 5.0002105 10.974609 5 L 13 5 L 14.025391 5 C 14.557169 5.0134727 14.986527 5.4428305 15 5.9746094 L 15 7.9746094 L 15 14.533203 L 15 20.025391 C 15.013473 20.557169 15.442831 20.986527 15.974609 21 L 17.025391 21 C 17.557169 21.013473 17.986527 21.442831 18 21.974609 L 18 22.025391 C 17.986527 22.557169 17.557169 22.986527 17.025391 23 L 10.974609 23 C 10.442831 22.986527 10.013473 22.557169 10 22.025391 L 10 21.974609 C 10.013473 21.442831 10.442831 21.013473 10.974609 21 L 12.025391 21 C 12.557169 20.986527 12.986527 20.557169 13 20.025391 L 13 13.072266 L 13 7.9746094 L 13 7.9492188 C 12.97402 7.4289754 12.54886 7.013262 12.025391 7 L 10.974609 7 C 10.442832 6.9865267 10.013473 6.5571683 10 6.0253906 L 10 5.9746094 C 10.013245 5.4511389 10.428976 5.0259807 10.949219 5 z "
       transform="scale(0.26458333)" />
    <path
       id="rect5345-6"
       style="fill:#a18a8a;fill-opacity:1;stroke-width:0.132292"
       d="m 8.5656403,1.2418759 v 0.2645833 c 0,-0.1461253 0.118458,-0.2645833 0.2645833,-0.2645833 z m 0,0.2645833 c 0,-0.1763889 0,-0.088194 0,0 z"
       sodipodi:nodetypes="cccccc" />
  </g>
</svg>
