<?xml version="1.0" encoding="UTF-8" standalone="no"?>
<!-- Created with Inkscape (http://www.inkscape.org/) -->

<svg
   width="28"
   height="28"
   viewBox="0 0 7.4083332 7.4083335"
   version="1.1"
   id="svg5"
   inkscape:version="1.1.2 (0a00cf5339, 2022-02-04)"
   sodipodi:docname="text.svg"
   xmlns:inkscape="http://www.inkscape.org/namespaces/inkscape"
   xmlns:sodipodi="http://sodipodi.sourceforge.net/DTD/sodipodi-0.dtd"
   xmlns="http://www.w3.org/2000/svg"
   xmlns:svg="http://www.w3.org/2000/svg">
  <sodipodi:namedview
     id="namedview7"
     pagecolor="#ffffff"
     bordercolor="#666666"
     borderopacity="1.0"
     inkscape:pageshadow="2"
     inkscape:pageopacity="0.0"
     inkscape:pagecheckerboard="0"
     inkscape:document-units="mm"
     showgrid="false"
     units="px"
     width="24px"
     inkscape:zoom="24.613707"
     inkscape:cx="19.907607"
     inkscape:cy="10.56322"
     inkscape:window-width="1920"
     inkscape:window-height="1029"
     inkscape:window-x="0"
     inkscape:window-y="22"
     inkscape:window-maximized="1"
     inkscape:current-layer="layer1" />
  <defs
     id="defs2" />
  <g
     inkscape:label="Layer 1"
     inkscape:groupmode="layer"
     id="layer1">
    <path
       id="rect848"
       style="fill:#f3c969;stroke-width:0.500001;fill-opacity:1"
       d="M 1 0 C 0.4477153 -2.761424e-08 -2.7614241e-08 0.4477153 0 1 L 0 27.025391 C 0.013472723 27.557169 0.4428305 27.986527 0.97460938 28 L 27.025391 28 C 27.557169 27.986527 27.986527 27.557169 28 27.025391 L 28 0.97460938 C 27.986527 0.4428305 27.557169 0.013472723 27.025391 0 L 1 0 z M 6.9746094 5 L 8 5 L 20 5 L 21.025391 5 C 21.557169 5.0134727 21.986527 5.4428305 22 5.9746094 L 22 6.0253906 L 22 8.0253906 C 21.986527 8.5571695 21.557169 8.9865273 21.025391 9 L 20.974609 9 C 20.442831 8.9865273 20.013473 8.5571695 20 8.0253906 L 20 7.9746094 C 19.986527 7.4428305 19.557169 7.0134727 19.025391 7 L 15.974609 7 C 15.442831 7.0134727 15.013473 7.4428305 15 7.9746094 L 15 20.025391 C 15.013473 20.557169 15.442831 20.986527 15.974609 21 L 17.025391 21 C 17.557169 21.013473 17.986527 21.442831 18 21.974609 L 18 22.025391 C 17.986527 22.557169 17.557169 22.986527 17.025391 23 L 10.974609 23 C 10.442831 22.986527 10.013473 22.557169 10 22.025391 L 10 21.974609 C 10.013473 21.442831 10.442831 21.013473 10.974609 21 L 12.025391 21 C 12.557169 20.986527 12.986527 20.557169 13 20.025391 L 13 7.9746094 C 12.986527 7.4428305 12.557169 7.0134727 12.025391 7 L 8.9746094 7 C 8.4428305 7.0134727 8.0134727 7.4428305 8 7.9746094 L 8 8.0253906 C 7.9865273 8.5571695 7.5571695 8.9865273 7.0253906 9 L 6.9746094 9 C 6.4428305 8.9865273 6.0134727 8.5571695 6 8.0253906 L 6 6.0253906 L 6 5.9746094 C 6.0134727 5.4428305 6.4428305 5.0134727 6.9746094 5 z "
       transform="scale(0.26458333)" />
    <path
       id="rect5345-6"
       style="fill:#6e5c5c;fill-opacity:1;stroke-width:0.132292"
       d="m 8.5656403,1.2418759 v 0.2645833 c 0,-0.1461253 0.118458,-0.2645833 0.2645833,-0.2645833 z m 0,0.2645833 c 0,-0.1763889 0,-0.088194 0,0 z"
       sodipodi:nodetypes="cccccc" />
  </g>
</svg>
