<?xml version="1.0" encoding="UTF-8" standalone="no"?>
<!-- Created with Inkscape (http://www.inkscape.org/) -->

<svg
   width="28"
   height="28"
   viewBox="0 0 7.4083332 7.4083335"
   version="1.1"
   id="svg5"
   sodipodi:docname="time.svg"
   inkscape:version="1.1.2 (0a00cf5339, 2022-02-04)"
   xmlns:inkscape="http://www.inkscape.org/namespaces/inkscape"
   xmlns:sodipodi="http://sodipodi.sourceforge.net/DTD/sodipodi-0.dtd"
   xmlns="http://www.w3.org/2000/svg"
   xmlns:svg="http://www.w3.org/2000/svg">
  <sodipodi:namedview
     id="namedview7"
     pagecolor="#ffffff"
     bordercolor="#666666"
     borderopacity="1.0"
     inkscape:pageshadow="2"
     inkscape:pageopacity="0.0"
     inkscape:pagecheckerboard="0"
     inkscape:document-units="mm"
     showgrid="false"
     units="px"
     width="24px"
     inkscape:zoom="20.466901"
     inkscape:cx="22.768469"
     inkscape:cy="17.051922"
     inkscape:window-width="1920"
     inkscape:window-height="1029"
     inkscape:window-x="0"
     inkscape:window-y="22"
     inkscape:window-maximized="1"
     inkscape:current-layer="layer1" />
  <defs
     id="defs2" />
  <g
     inkscape:label="Layer 1"
     inkscape:groupmode="layer"
     id="layer1">
    <path
       id="rect848"
       style="fill:#f3c969;stroke-width:0.500001;fill-opacity:1"
       d="M 1 0 C 0.44771536 -2.761424e-08 -2.7614241e-08 0.44771536 0 1 L 0 27.025391 C 0.013472723 27.557169 0.4428305 27.986527 0.97460938 28 L 27.025391 28 C 27.557169 27.986527 27.986527 27.557169 28 27.025391 L 28 0.97460938 C 27.986527 0.4428305 27.557169 0.013472723 27.025391 0 L 1 0 z M 5.9746094 5 L 12.025391 5 C 12.557169 5.0134727 12.986527 5.4428305 13 5.9746094 L 13 6.0253906 C 13.013455 6.5571694 13.442831 6.9865271 13.974609 7 L 14.025391 7 C 14.557169 6.9865271 14.986527 6.5571694 15 6.0253906 L 15 5.9746094 C 15.013473 5.4428305 15.442831 5.0134727 15.974609 5 L 22.025391 5 C 22.557169 5.0134727 22.986527 5.4428305 23 5.9746094 L 23 12.025391 C 22.986527 12.557169 22.557169 12.986527 22.025391 13 L 21.974609 13 C 21.9663 13.000211 21.957477 12.999588 21.949219 13 C 21.428974 13.025981 21.013245 13.45114 21 13.974609 L 21 14.025391 C 21.013473 14.557169 21.442831 14.986527 21.974609 15 L 22.025391 15 C 22.557169 15.013473 22.986527 15.442831 23 15.974609 L 23 22.025391 C 22.986527 22.557169 22.557169 22.986527 22.025391 23 L 15.974609 23 C 15.442831 22.986527 15.013473 22.557169 15 22.025391 L 15 21.974609 C 14.986527 21.442831 14.557169 21.013455 14.025391 21 L 13.974609 21 C 13.9663 21.000211 13.957477 20.999588 13.949219 21 C 13.428976 21.02598 13.013262 21.45114 13 21.974609 L 13 22.025391 C 12.986527 22.557169 12.557169 22.986527 12.025391 23 L 5.9746094 23 C 5.4428308 22.986527 5.0134727 22.557169 5 22.025391 L 5 15.974609 C 5.0134727 15.442831 5.4428305 15.013473 5.9746094 15 L 6.0253906 15 C 6.5571694 14.986527 6.9865275 14.557169 7 14.025391 L 7 13.974609 C 6.9865275 13.442831 6.5571694 13.013473 6.0253906 13 L 5.9746094 13 C 5.4428308 12.986527 5.0134727 12.557169 5 12.025391 L 5 5.9746094 C 5.0134727 5.4428305 5.4428305 5.0134727 5.9746094 5 z M 13.974609 8 C 13.442831 8.0134727 13.013473 8.4428305 13 8.9746094 L 13 13 L 13 14.025391 C 13.013473 14.557169 13.442831 14.986527 13.974609 15 L 15 15 L 18.025391 15 C 18.557169 14.986527 18.986527 14.557169 19 14.025391 L 19 13.974609 C 18.986527 13.442831 18.557169 13.013473 18.025391 13 L 15.974609 13 C 15.442831 12.986527 15.013473 12.557169 15 12.025391 L 15 8.9746094 C 14.986527 8.4428305 14.557169 8.0134727 14.025391 8 L 13.974609 8 z "
       transform="scale(0.26458333)" />
    <path
       id="rect5345-6"
       style="fill:#5b4c4c;fill-opacity:1;stroke-width:0.132292"
       d="m 8.5656403,1.2418759 v 0.2645833 c 0,-0.1461253 0.118458,-0.2645833 0.2645833,-0.2645833 z m 0,0.2645833 c 0,-0.1763889 0,-0.088194 0,0 z"
       sodipodi:nodetypes="cccccc" />
  </g>
</svg>
