<?xml version="1.0" encoding="UTF-8" standalone="no"?>
<!-- Created with Inkscape (http://www.inkscape.org/) -->

<svg
   width="32"
   height="32"
   viewBox="0 0 8.4666665 8.4666666"
   version="1.1"
   id="svg1"
   inkscape:version="1.3 (0e150ed6c4, 2023-07-21)"
   sodipodi:docname="download-missing.svg"
   xmlns:inkscape="http://www.inkscape.org/namespaces/inkscape"
   xmlns:sodipodi="http://sodipodi.sourceforge.net/DTD/sodipodi-0.dtd"
   xmlns="http://www.w3.org/2000/svg"
   xmlns:svg="http://www.w3.org/2000/svg">
  <sodipodi:namedview
     id="namedview1"
     pagecolor="#ffffff"
     bordercolor="#000000"
     borderopacity="0.25"
     inkscape:showpageshadow="2"
     inkscape:pageopacity="0.0"
     inkscape:pagecheckerboard="0"
     inkscape:deskcolor="#d1d1d1"
     inkscape:document-units="px"
     inkscape:zoom="17.227807"
     inkscape:cx="19.06801"
     inkscape:cy="18.66169"
     inkscape:window-width="1920"
     inkscape:window-height="1132"
     inkscape:window-x="0"
     inkscape:window-y="32"
     inkscape:window-maximized="1"
     inkscape:current-layer="layer1" />
  <defs
     id="defs1" />
  <g
     inkscape:label="Layer 1"
     inkscape:groupmode="layer"
     id="layer1">
    <circle
       style="fill:none;stroke:#edd096;stroke-width:0.688558;stroke-dasharray:none;stroke-opacity:1"
       id="path1"
       cx="4.2333336"
       cy="4.2333336"
       r="2.8307209" />
    <path
       style="font-weight:bold;font-size:4.93889px;font-family:'Source Code Pro';-inkscape-font-specification:'Source Code Pro';fill:#edd096;stroke-width:0.79375"
       d="m 3.8406915,4.6284443 h 0.632178 C 4.4136028,4.0555331 5.2186418,3.9765108 5.2186418,3.3245774 c 0,-0.5432779 -0.4445,-0.8050391 -1.0124724,-0.8050391 -0.3901723,0 -0.7210779,0.1827389 -0.9581447,0.4445001 l 0.404989,0.3704167 c 0.1481667,-0.13335 0.3012723,-0.2271889 0.5037668,-0.2271889 0.2074334,0 0.3654779,0.1037167 0.3654779,0.3111501 0,0.3654778 -0.7902224,0.5482167 -0.6815669,1.210028 z m 0.3358446,1.3186836 c 0.2815167,0 0.493889,-0.2074333 0.493889,-0.5037667 0,-0.2913946 -0.2123723,-0.493889 -0.493889,-0.493889 -0.2815168,0 -0.493889,0.2024944 -0.493889,0.493889 0,0.2963334 0.2123722,0.5037667 0.493889,0.5037667 z"
       id="text1"
       aria-label="?" />
  </g>
</svg>
