<svg width="28" height="28" viewBox="0 0 7.4083332 7.4083335" xmlns:inkscape="http://www.inkscape.org/namespaces/inkscape" xmlns:sodipodi="http://sodipodi.sourceforge.net/DTD/sodipodi-0.dtd" xmlns="http://www.w3.org/2000/svg" xmlns:svg="http://www.w3.org/2000/svg"><g><path style="fill:#444444;fill-opacity:1;stroke-width:0" d="m 2.5616007,1.3229167 v 5.159e-4 C 2.4521259,1.3233888 2.3539299,1.3907701 2.3145874,1.4929313 L 2.3135574,1.4924154 1.341007,3.9243082 c 0,0 -0.01295,0.031536 -0.016105,0.048625 -0.00316,0.01709 -0.00199,0.052679 -0.00199,0.052679 v 1.795221 c 0,0.1461254 0.118458,0.2645834 0.2645834,0.2645833 H 5.8301349 C 5.9690842,6.0806119 6.0806118,5.9690843 6.0854166,5.830135 V 4.0368391 c 0,0 2.707e-4,-0.03718 -0.00484,-0.066297 -0.00511,-0.029117 -0.017165,-0.057774 -0.017165,-0.057774 L 5.0943575,1.490408 5.0933257,1.4909239 C 5.0533927,1.3896956 4.9555524,1.3232408 4.8467324,1.3234335 v -5.168e-4 z m 0.3183268,0.5291666 h 1.6484781 c 0.1097347,1.201e-4 0.2080062,0.067964 0.2470134,0.1705322 h 5.292e-4 l 0.6310103,1.5736683 c 0,0 0.013653,0.031477 0.018713,0.055519 0.00506,0.024043 0.00399,0.052363 0.00399,0.052363 0,0.1461254 -0.118458,0.2645834 -0.2645834,0.2645833 H 4.7278977 C 4.6084137,3.9694402 4.5042198,4.0501263 4.4736495,4.1656354 H 4.4731204 C 4.3831921,4.5168542 4.0667156,4.7625044 3.7041666,4.7625 3.3420926,4.761437 3.024047,4.5165142 2.9347084,4.1656335 v 0 C 2.9041369,4.0501239 2.7999412,3.9694385 2.6804565,3.96875 H 2.2432739 c -0.1461254,10e-8 -0.2645835,-0.118458 -0.2645834,-0.2645834 3.79e-5,-0.034202 0.00671,-0.068072 0.019637,-0.099735 C 2.2093503,3.0771163 2.4209861,2.5498475 2.6323974,2.0226155 h 5.16e-4 C 2.6719207,1.9200474 2.7701925,1.8522031 2.8799275,1.8520833 Z"/></g></svg>
