<?xml version="1.0" encoding="UTF-8" standalone="no"?>
<!-- Created with Inkscape (http://www.inkscape.org/) -->

<svg
   width="1064"
   height="440"
   viewBox="0 0 281.51667 116.41668"
   version="1.1"
   id="svg5"
   inkscape:version="1.1.2 (0a00cf5339, 2022-02-04)"
   sodipodi:docname="gettagtags.svg"
   inkscape:export-filename="/home/kim/Workspace/Android/silvascope/assets/images/silvascope-google-play-store-feature.png"
   inkscape:export-xdpi="96"
   inkscape:export-ydpi="96"
   xmlns:inkscape="http://www.inkscape.org/namespaces/inkscape"
   xmlns:sodipodi="http://sodipodi.sourceforge.net/DTD/sodipodi-0.dtd"
   xmlns:xlink="http://www.w3.org/1999/xlink"
   xmlns="http://www.w3.org/2000/svg"
   xmlns:svg="http://www.w3.org/2000/svg">
  <sodipodi:namedview
     id="namedview7"
     pagecolor="#ffffff"
     bordercolor="#666666"
     borderopacity="1.0"
     inkscape:pageshadow="2"
     inkscape:pageopacity="0.0"
     inkscape:pagecheckerboard="0"
     inkscape:document-units="px"
     showgrid="false"
     units="px"
     inkscape:zoom="0.3685762"
     inkscape:cx="105.81258"
     inkscape:cy="917.0424"
     inkscape:window-width="1920"
     inkscape:window-height="1050"
     inkscape:window-x="1920"
     inkscape:window-y="0"
     inkscape:window-maximized="1"
     inkscape:current-layer="layer1"
     fit-margin-top="0"
     fit-margin-left="0"
     fit-margin-right="0"
     fit-margin-bottom="0" />
  <defs
     id="defs2">
    <linearGradient
       inkscape:collect="always"
       id="linearGradient897">
      <stop
         style="stop-color:#128526;stop-opacity:1;"
         offset="0"
         id="stop893" />
      <stop
         style="stop-color:#aa0014;stop-opacity:1"
         offset="1"
         id="stop895" />
    </linearGradient>
    <linearGradient
       inkscape:collect="always"
       xlink:href="#linearGradient897"
       id="linearGradient899"
       x1="-5.822722"
       y1="-39.610477"
       x2="50.966091"
       y2="-96.399292"
       gradientUnits="userSpaceOnUse"
       gradientTransform="matrix(4.7708929,0,0,1.8636297,33.071248,198.17343)" />
    <filter
       inkscape:collect="always"
       style="color-interpolation-filters:sRGB"
       id="filter1549"
       x="-0.018773436"
       y="-0.048059999"
       width="1.0375469"
       height="1.09612">
      <feGaussianBlur
         inkscape:collect="always"
         stdDeviation="2.1193126"
         id="feGaussianBlur1551" />
    </filter>
  </defs>
  <g
     inkscape:label="Layer 1"
     inkscape:groupmode="layer"
     id="layer1"
     transform="translate(1.0576698e-6,-13.229167)">
    <path
       id="path1457"
       style="fill:#000000;fill-opacity:1;stroke-width:0.529167;stroke-linecap:round;filter:url(#filter1549)"
       d="m 58.208336,18.520834 c -29.22507,1e-6 -52.9166683,23.691599 -52.9166698,52.916669 1.5e-6,29.225067 23.6915998,52.916667 52.9166698,52.916667 H 223.30835 c 29.22507,0 52.91667,-23.6916 52.91667,-52.916667 0,-29.22507 -23.6916,-52.916668 -52.91667,-52.916669 z" />
    <path
       id="rect891"
       style="fill:url(#linearGradient899);fill-opacity:1;stroke-width:0.529167;stroke-linecap:round"
       d="m 58.208336,18.520834 c -29.22507,1e-6 -52.9166683,23.691599 -52.9166698,52.916669 1.5e-6,29.225067 23.6915998,52.916667 52.9166698,52.916667 H 223.30835 c 29.22507,0 52.91667,-23.6916 52.91667,-52.916667 0,-29.22507 -23.6916,-52.916668 -52.91667,-52.916669 z" />
    <g
       id="g1397"
       transform="translate(-6.5797466,2.645834)">
      <path
         id="rect2788-8"
         style="fill:#ffffff;fill-opacity:1;stroke:none;stroke-width:0.234123;stroke-miterlimit:4;stroke-dasharray:none"
         d="m 46.402676,32.808334 v 26.169411 a 19.844029,19.627335 0 0 0 19.84375,19.627841 v 6.54235 A 19.844029,19.627335 0 0 0 86.090176,104.775 V 91.690295 a 6.6146751,6.5424436 0 0 1 -6.614573,-6.542359 v -6.54235 h 6.614573 V 65.520883 H 79.475603 V 58.977744 H 66.246426 v 6.542353 a 6.6146751,6.5424436 0 0 1 -6.614571,-6.542353 v -6.542353 h 6.614571 V 39.350689 h -6.614571 v -6.542355 z" />
      <g
         id="g878">
        <path
           d="m 103.588,42.717005 c -3.869612,0 -6.913393,2.9494 -6.913393,8.541462 0,5.615658 2.099973,8.588653 6.606653,8.588653 1.76964,0 3.68085,-0.613475 5.14376,-1.675259 v -8.069558 h -5.54488 l 0.35393,2.619067 h 1.69886 v 3.869613 c -0.5191,0.353928 -1.10898,0.566284 -1.74605,0.566284 -1.81683,0 -2.68985,-1.486497 -2.68985,-5.875204 0,-4.247136 1.29774,-5.875205 3.27973,-5.875205 1.10898,0 1.88762,0.377523 2.83143,1.156165 l 1.79323,-1.864021 c -1.20335,-1.17976 -2.73704,-1.981997 -4.81342,-1.981997 z"
           style="font-weight:bold;font-size:23.5952px;line-height:1.25;font-family:'Fira Sans Condensed';-inkscape-font-specification:'Fira Sans Condensed, ';fill:#ffffff;stroke-width:0.264583"
           id="path833" />
        <path
           d="m 120.34058,52.957322 c 0,-4.247136 -2.00559,-6.417895 -5.12016,-6.417895 -3.4213,0 -5.21454,2.784234 -5.21454,6.748228 0,4.011184 1.86402,6.58306 5.56847,6.58306 1.86402,0 3.30333,-0.731451 4.34152,-1.722449 l -1.43931,-1.934807 c -0.92021,0.707856 -1.67526,1.038189 -2.64266,1.038189 -1.25055,0 -2.07638,-0.613475 -2.26514,-2.99659 h 6.70103 c 0.0236,-0.353928 0.0708,-0.896618 0.0708,-1.297736 z m -3.4685,-0.825832 h -3.30332 c 0.11797,-2.524687 0.70785,-3.232543 1.69885,-3.232543 1.17976,0 1.58088,1.038189 1.60447,3.043781 z"
           style="font-weight:bold;font-size:23.5952px;line-height:1.25;font-family:'Fira Sans Condensed';-inkscape-font-specification:'Fira Sans Condensed, ';fill:#ffffff;stroke-width:0.264583"
           id="path835" />
        <path
           d="m 127.9146,56.708959 c -0.40112,0.212356 -0.70785,0.330332 -1.08538,0.330332 -0.63707,0 -0.9674,-0.377523 -0.9674,-1.156164 v -6.465085 h 2.09997 l 0.37753,-2.477496 h -2.4775 v -3.138162 l -3.56288,0.401119 v 2.737043 h -1.39211 v 2.477496 h 1.39211 v 6.512275 c 0,2.35952 1.17976,3.940398 3.72805,3.940398 0.99099,0 2.21794,-0.306737 3.06737,-0.990998 z"
           style="font-weight:bold;font-size:23.5952px;line-height:1.25;font-family:'Fira Sans Condensed';-inkscape-font-specification:'Fira Sans Condensed, ';fill:#ffffff;stroke-width:0.264583"
           id="path837" />
        <path
           d="m 144.5964,43.118124 h -10.94817 v 2.831424 h 3.51569 v 13.520049 h 3.70444 V 45.949548 h 3.35052 z"
           style="font-weight:bold;font-size:23.5952px;line-height:1.25;font-family:'Fira Sans Condensed';-inkscape-font-specification:'Fira Sans Condensed, ';fill:#ffffff;stroke-width:0.264583"
           id="path839" />
        <path
           d="m 152.97269,56.071888 v -5.143753 c 0,-2.972996 -1.43931,-4.388708 -4.50668,-4.388708 -1.34493,0 -2.92581,0.330333 -4.27074,0.943808 l 0.77865,2.241544 c 1.08538,-0.377523 2.00559,-0.613475 2.83142,-0.613475 1.25055,0 1.69885,0.471904 1.69885,2.005592 v 0.637071 h -0.92021 c -3.37411,0 -5.16735,1.486497 -5.16735,4.199945 0,2.35952 1.36852,3.916803 3.53928,3.916803 1.25055,0 2.43031,-0.495499 3.27974,-1.793235 0.4719,1.156165 1.36852,1.604474 2.71344,1.72245 l 0.73145,-2.335925 c -0.51909,-0.212357 -0.70785,-0.54269 -0.70785,-1.392117 z m -4.9314,1.274141 c -0.70785,0 -1.13257,-0.58988 -1.13257,-1.698854 0,-1.297736 0.63707,-1.911212 2.00559,-1.911212 h 0.58988 v 2.406711 c -0.33033,0.755046 -0.82583,1.203355 -1.4629,1.203355 z"
           style="font-weight:bold;font-size:23.5952px;line-height:1.25;font-family:'Fira Sans Condensed';-inkscape-font-specification:'Fira Sans Condensed, ';fill:#ffffff;stroke-width:0.264583"
           id="path841" />
        <path
           d="m 164.6523,45.076525 c -1.29774,0.778642 -2.59548,1.533688 -4.9314,1.510093 -3.09097,-0.0236 -5.02578,1.675259 -5.02578,4.530278 0,1.698855 0.61348,2.760639 1.982,3.586471 -0.77864,0.542689 -1.34493,1.368521 -1.34493,2.335924 0,1.392117 0.991,2.430306 3.56288,2.430306 h 1.17976 c 1.13257,0 1.65166,0.471904 1.65166,1.368521 0,0.873023 -0.4955,1.510093 -2.19435,1.510093 -1.76964,0 -2.14716,-0.542689 -2.14716,-1.675259 h -3.18536 c 0,2.453901 1.06179,4.011184 5.30892,4.011184 3.77523,0 5.78083,-1.628069 5.78083,-4.105565 0,-2.076377 -1.62807,-3.53928 -4.41231,-3.53928 h -1.39211 c -1.03819,0 -1.25055,-0.353928 -1.25055,-0.825832 0,-0.330332 0.14157,-0.63707 0.40112,-0.802236 0.35393,0.09438 0.75505,0.141571 1.20336,0.141571 2.9258,0 4.69544,-1.72245 4.69544,-4.176351 0,-1.651664 -0.70786,-2.619067 -2.12357,-3.256137 1.39212,0 2.38312,-0.141571 3.09097,-0.495499 z m -4.955,3.822422 c 0.94381,0 1.46291,0.566285 1.46291,2.099973 0,1.675259 -0.5191,2.265139 -1.4865,2.265139 -0.92021,0 -1.4865,-0.660665 -1.4865,-2.194353 0,-1.533688 0.54269,-2.170759 1.51009,-2.170759 z"
           style="font-weight:bold;font-size:23.5952px;line-height:1.25;font-family:'Fira Sans Condensed';-inkscape-font-specification:'Fira Sans Condensed, ';fill:#ffffff;stroke-width:0.264583"
           id="path843" />
        <path
           d="M 176.47347,43.118124 H 165.5253 v 2.831424 h 3.51568 v 13.520049 h 3.70445 V 45.949548 h 3.35052 z"
           style="font-weight:bold;font-size:23.5952px;line-height:1.25;font-family:'Fira Sans Condensed';-inkscape-font-specification:'Fira Sans Condensed, ';fill:#ffffff;stroke-width:0.264583"
           id="path845" />
        <path
           d="m 184.84975,56.071888 v -5.143753 c 0,-2.972996 -1.4393,-4.388708 -4.50668,-4.388708 -1.34493,0 -2.92581,0.330333 -4.27073,0.943808 l 0.77864,2.241544 c 1.08538,-0.377523 2.00559,-0.613475 2.83142,-0.613475 1.25055,0 1.69886,0.471904 1.69886,2.005592 v 0.637071 h -0.92021 c -3.37412,0 -5.16735,1.486497 -5.16735,4.199945 0,2.35952 1.36852,3.916803 3.53928,3.916803 1.25054,0 2.4303,-0.495499 3.27973,-1.793235 0.4719,1.156165 1.36852,1.604474 2.71345,1.72245 l 0.73145,-2.335925 c -0.5191,-0.212357 -0.70786,-0.54269 -0.70786,-1.392117 z m -4.93139,1.274141 c -0.70786,0 -1.13257,-0.58988 -1.13257,-1.698854 0,-1.297736 0.63707,-1.911212 2.00559,-1.911212 h 0.58988 v 2.406711 c -0.33033,0.755046 -0.82583,1.203355 -1.4629,1.203355 z"
           style="font-weight:bold;font-size:23.5952px;line-height:1.25;font-family:'Fira Sans Condensed';-inkscape-font-specification:'Fira Sans Condensed, ';fill:#ffffff;stroke-width:0.264583"
           id="path847" />
        <path
           d="m 196.52936,45.076525 c -1.29773,0.778642 -2.59547,1.533688 -4.93139,1.510093 -3.09097,-0.0236 -5.02578,1.675259 -5.02578,4.530278 0,1.698855 0.61348,2.760639 1.982,3.586471 -0.77864,0.542689 -1.34493,1.368521 -1.34493,2.335924 0,1.392117 0.991,2.430306 3.56288,2.430306 h 1.17976 c 1.13256,0 1.65166,0.471904 1.65166,1.368521 0,0.873023 -0.4955,1.510093 -2.19435,1.510093 -1.76964,0 -2.14717,-0.542689 -2.14717,-1.675259 h -3.18535 c 0,2.453901 1.06178,4.011184 5.30892,4.011184 3.77523,0 5.78082,-1.628069 5.78082,-4.105565 0,-2.076377 -1.62806,-3.53928 -4.4123,-3.53928 h -1.39211 c -1.03819,0 -1.25055,-0.353928 -1.25055,-0.825832 0,-0.330332 0.14157,-0.63707 0.40112,-0.802236 0.35393,0.09438 0.75504,0.141571 1.20335,0.141571 2.92581,0 4.69545,-1.72245 4.69545,-4.176351 0,-1.651664 -0.70786,-2.619067 -2.12357,-3.256137 1.39212,0 2.38312,-0.141571 3.09097,-0.495499 z m -4.95499,3.822422 c 0.94381,0 1.4629,0.566285 1.4629,2.099973 0,1.675259 -0.51909,2.265139 -1.48649,2.265139 -0.92022,0 -1.4865,-0.660665 -1.4865,-2.194353 0,-1.533688 0.54269,-2.170759 1.51009,-2.170759 z"
           style="font-weight:bold;font-size:23.5952px;line-height:1.25;font-family:'Fira Sans Condensed';-inkscape-font-specification:'Fira Sans Condensed, ';fill:#ffffff;stroke-width:0.264583"
           id="path849" />
        <path
           d="m 202.33376,46.539427 c -2.87862,0 -4.53028,1.67526 -4.53028,3.869613 0,1.816831 0.92021,2.90221 3.16175,3.751637 1.84043,0.684261 2.21795,1.061784 2.21795,1.934806 0,0.778642 -0.54269,1.250546 -1.4629,1.250546 -0.991,0 -1.9584,-0.519094 -2.78423,-1.17976 l -1.67526,1.864021 c 1.10897,1.132569 2.73704,1.840425 4.62466,1.840425 2.83142,0 4.93139,-1.533688 4.93139,-4.081969 0,-2.076378 -1.15616,-3.090971 -3.25613,-3.869613 -1.86402,-0.731451 -2.24155,-1.061784 -2.24155,-1.76964 0,-0.660666 0.4955,-1.061784 1.32133,-1.061784 0.84943,0 1.65167,0.353928 2.50109,0.920213 l 1.29774,-1.934807 c -1.03819,-0.943808 -2.4539,-1.533688 -4.10556,-1.533688 z"
           style="font-weight:bold;font-size:23.5952px;line-height:1.25;font-family:'Fira Sans Condensed';-inkscape-font-specification:'Fira Sans Condensed, ';fill:#ffffff;stroke-width:0.264583"
           id="path851" />
        <path
           d="m 216.56164,43.212504 c -2.12357,0 -3.72805,1.038189 -4.86062,2.713448 l 2.02919,1.580879 c 0.84943,-1.061784 1.4629,-1.580879 2.43031,-1.580879 1.03819,0 1.65166,0.684261 1.65166,1.934807 0,2.099972 -1.01459,3.728041 -5.59206,9.084152 v 2.524686 h 9.15494 l 0.37752,-2.737043 h -5.71004 c 4.38871,-4.766231 5.4033,-6.653847 5.4033,-9.107747 0,-2.406711 -1.67526,-4.412303 -4.8842,-4.412303 z"
           style="font-weight:bold;font-size:23.5952px;line-height:1.25;font-family:'Fira Sans Condensed';-inkscape-font-specification:'Fira Sans Condensed, ';fill:#ffffff;stroke-width:0.264583"
           id="path853" />
        <path
           d="m 102.03072,76.72162 c -3.350521,0 -5.403303,2.35952 -5.403303,6.653847 0,4.459492 2.076377,6.677441 5.403303,6.677441 3.35052,0 5.4033,-2.40671 5.4033,-6.653846 0,-4.483088 -2.07638,-6.677442 -5.4033,-6.677442 z m 0,2.642663 c 1.17976,0 1.74604,1.014593 1.74604,4.034779 0,2.972995 -0.56628,4.034779 -1.74604,4.034779 -1.17976,0 -1.72245,-1.014594 -1.72245,-4.058374 0,-2.9494 0.56628,-4.011184 1.72245,-4.011184 z"
           style="font-weight:bold;font-size:23.5952px;line-height:1.25;font-family:'Fira Sans Condensed';-inkscape-font-specification:'Fira Sans Condensed, ';fill:#ffffff;stroke-width:0.264583"
           id="path855" />
        <path
           d="m 115.8575,76.72162 c -1.39211,0 -2.38311,0.660666 -3.23254,1.887616 l -0.25955,-1.486497 h -3.11456 V 89.65179 h 3.56287 v -8.706629 c 0.54269,-0.943808 1.08538,-1.510093 1.67526,-1.510093 0.5191,0 0.82583,0.353928 0.82583,1.486498 v 8.730224 h 3.56288 v -9.131343 c 0,-2.40671 -1.13257,-3.798827 -3.02019,-3.798827 z"
           style="font-weight:bold;font-size:23.5952px;line-height:1.25;font-family:'Fira Sans Condensed';-inkscape-font-specification:'Fira Sans Condensed, ';fill:#ffffff;stroke-width:0.264583"
           id="path857" />
        <path
           d="m 132.23255,72.899198 c -3.86962,0 -6.9134,2.9494 -6.9134,8.541462 0,5.615658 2.09997,8.588653 6.60666,8.588653 1.76964,0 3.68085,-0.613475 5.14375,-1.675259 v -8.069559 h -5.54487 l 0.35393,2.619068 h 1.69885 v 3.869612 c -0.51909,0.353928 -1.10897,0.566285 -1.74604,0.566285 -1.81683,0 -2.68986,-1.486497 -2.68986,-5.875205 0,-4.247136 1.29774,-5.875204 3.27974,-5.875204 1.10897,0 1.88761,0.377523 2.83142,1.156164 l 1.79324,-1.86402 c -1.20336,-1.17976 -2.73705,-1.981997 -4.81342,-1.981997 z"
           style="font-weight:bold;font-size:23.5952px;line-height:1.25;font-family:'Fira Sans Condensed';-inkscape-font-specification:'Fira Sans Condensed, ';fill:#ffffff;stroke-width:0.264583"
           id="path859" />
        <path
           d="m 144.05373,76.72162 c -3.35052,0 -5.4033,2.35952 -5.4033,6.653847 0,4.459492 2.07637,6.677441 5.4033,6.677441 3.35052,0 5.4033,-2.40671 5.4033,-6.653846 0,-4.483088 -2.07638,-6.677442 -5.4033,-6.677442 z m 0,2.642663 c 1.17976,0 1.74604,1.014593 1.74604,4.034779 0,2.972995 -0.56628,4.034779 -1.74604,4.034779 -1.17976,0 -1.72245,-1.014594 -1.72245,-4.058374 0,-2.9494 0.56628,-4.011184 1.72245,-4.011184 z"
           style="font-weight:bold;font-size:23.5952px;line-height:1.25;font-family:'Fira Sans Condensed';-inkscape-font-specification:'Fira Sans Condensed, ';fill:#ffffff;stroke-width:0.264583"
           id="path861" />
        <path
           d="m 156.18166,76.72162 c -3.35052,0 -5.4033,2.35952 -5.4033,6.653847 0,4.459492 2.07637,6.677441 5.4033,6.677441 3.35052,0 5.4033,-2.40671 5.4033,-6.653846 0,-4.483088 -2.07638,-6.677442 -5.4033,-6.677442 z m 0,2.642663 c 1.17976,0 1.74604,1.014593 1.74604,4.034779 0,2.972995 -0.56628,4.034779 -1.74604,4.034779 -1.17976,0 -1.72245,-1.014594 -1.72245,-4.058374 0,-2.9494 0.56628,-4.011184 1.72245,-4.011184 z"
           style="font-weight:bold;font-size:23.5952px;line-height:1.25;font-family:'Fira Sans Condensed';-inkscape-font-specification:'Fira Sans Condensed, ';fill:#ffffff;stroke-width:0.264583"
           id="path863" />
        <path
           d="m 172.69829,75.258718 c -1.29773,0.778642 -2.59547,1.533688 -4.93139,1.510093 -3.09097,-0.0236 -5.02578,1.675259 -5.02578,4.530278 0,1.698854 0.61348,2.760638 1.982,3.58647 -0.77864,0.54269 -1.34493,1.368522 -1.34493,2.335925 0,1.392117 0.991,2.430306 3.56288,2.430306 h 1.17976 c 1.13257,0 1.65166,0.471904 1.65166,1.368521 0,0.873023 -0.4955,1.510093 -2.19435,1.510093 -1.76964,0 -2.14717,-0.54269 -2.14717,-1.675259 h -3.18535 c 0,2.453901 1.06178,4.011184 5.30892,4.011184 3.77523,0 5.78082,-1.628069 5.78082,-4.105565 0,-2.076378 -1.62806,-3.53928 -4.4123,-3.53928 h -1.39211 c -1.03819,0 -1.25055,-0.353928 -1.25055,-0.825832 0,-0.330333 0.14157,-0.63707 0.40112,-0.802237 0.35393,0.09438 0.75504,0.141572 1.20335,0.141572 2.92581,0 4.69545,-1.72245 4.69545,-4.176351 0,-1.651664 -0.70786,-2.619067 -2.12357,-3.256137 1.39212,0 2.38312,-0.141572 3.09097,-0.4955 z m -4.95499,3.822422 c 0.94381,0 1.4629,0.566285 1.4629,2.099973 0,1.675259 -0.51909,2.265139 -1.48649,2.265139 -0.92022,0 -1.4865,-0.660665 -1.4865,-2.194353 0,-1.533688 0.54269,-2.170759 1.51009,-2.170759 z"
           style="font-weight:bold;font-size:23.5952px;line-height:1.25;font-family:'Fira Sans Condensed';-inkscape-font-specification:'Fira Sans Condensed, ';fill:#ffffff;stroke-width:0.264583"
           id="path865" />
        <path
           d="m 177.67686,90.052908 c 0.80224,0 1.55728,-0.212357 2.02919,-0.448309 l -0.66067,-2.4539 c -0.11797,0.04719 -0.28314,0.07079 -0.4719,0.07079 -0.37752,0 -0.54269,-0.212357 -0.54269,-0.63707 V 71.766628 l -3.56288,0.377524 V 86.74958 c 0,2.029187 1.17976,3.303328 3.20895,3.303328 z"
           style="font-weight:bold;font-size:23.5952px;line-height:1.25;font-family:'Fira Sans Condensed';-inkscape-font-specification:'Fira Sans Condensed, ';fill:#ffffff;stroke-width:0.264583"
           id="path867" />
        <path
           d="m 190.48901,83.139515 c 0,-4.247136 -2.00559,-6.417895 -5.12016,-6.417895 -3.4213,0 -5.21454,2.784234 -5.21454,6.748227 0,4.011184 1.86402,6.583061 5.56847,6.583061 1.86402,0 3.30333,-0.731451 4.34151,-1.72245 l -1.4393,-1.934806 c -0.92022,0.707856 -1.67526,1.038189 -2.64267,1.038189 -1.25054,0 -2.07637,-0.613475 -2.26513,-2.99659 h 6.70103 c 0.0236,-0.353928 0.0708,-0.896618 0.0708,-1.297736 z m -3.4685,-0.825832 h -3.30332 c 0.11797,-2.524687 0.70785,-3.232543 1.69885,-3.232543 1.17976,0 1.58088,1.038189 1.60447,3.043781 z"
           style="font-weight:bold;font-size:23.5952px;line-height:1.25;font-family:'Fira Sans Condensed';-inkscape-font-specification:'Fira Sans Condensed, ';fill:#ffffff;stroke-width:0.264583"
           id="path869" />
        <path
           d="m 201.31916,73.300316 h -4.4123 V 89.65179 h 3.70445 v -5.497682 h 1.08538 c 3.68085,0 5.99318,-1.81683 5.99318,-5.544872 0,-3.515684 -2.26514,-5.30892 -6.37071,-5.30892 z m 0.0472,8.163939 h -0.75504 v -5.521276 h 0.80223 c 1.79324,0 2.4775,0.873022 2.4775,2.666257 0,2.099973 -0.77864,2.855019 -2.52469,2.855019 z"
           style="font-weight:bold;font-size:23.5952px;line-height:1.25;font-family:'Fira Sans Condensed';-inkscape-font-specification:'Fira Sans Condensed, ';fill:#ffffff;stroke-width:0.264583"
           id="path871" />
        <path
           d="m 212.26732,90.052908 c 0.80224,0 1.55729,-0.212357 2.02919,-0.448309 l -0.66067,-2.4539 c -0.11797,0.04719 -0.28314,0.07079 -0.4719,0.07079 -0.37752,0 -0.54269,-0.212357 -0.54269,-0.63707 V 71.766628 l -3.56287,0.377524 V 86.74958 c 0,2.029187 1.17976,3.303328 3.20894,3.303328 z"
           style="font-weight:bold;font-size:23.5952px;line-height:1.25;font-family:'Fira Sans Condensed';-inkscape-font-specification:'Fira Sans Condensed, ';fill:#ffffff;stroke-width:0.264583"
           id="path873" />
        <path
           d="m 224.27728,86.254081 v -5.143754 c 0,-2.972995 -1.43931,-4.388707 -4.50668,-4.388707 -1.34493,0 -2.92581,0.330333 -4.27073,0.943808 l 0.77864,2.241544 c 1.08538,-0.377523 2.00559,-0.613475 2.83142,-0.613475 1.25055,0 1.69886,0.471904 1.69886,2.005592 v 0.63707 h -0.92022 c -3.37411,0 -5.16735,1.486498 -5.16735,4.199946 0,2.35952 1.36853,3.916803 3.53928,3.916803 1.25055,0 2.43031,-0.495499 3.27974,-1.793235 0.4719,1.156165 1.36852,1.604473 2.71345,1.722449 l 0.73145,-2.335924 c -0.5191,-0.212357 -0.70786,-0.54269 -0.70786,-1.392117 z m -4.9314,1.274141 c -0.70785,0 -1.13257,-0.58988 -1.13257,-1.698855 0,-1.297736 0.63707,-1.911211 2.0056,-1.911211 h 0.58988 v 2.406711 c -0.33034,0.755046 -0.82584,1.203355 -1.46291,1.203355 z"
           style="font-weight:bold;font-size:23.5952px;line-height:1.25;font-family:'Fira Sans Condensed';-inkscape-font-specification:'Fira Sans Condensed, ';fill:#ffffff;stroke-width:0.264583"
           id="path875" />
        <path
           d="m 236.26358,77.122739 h -3.53928 l -2.05278,10.263912 -1.84043,-10.263912 h -3.61006 l 3.18535,12.529051 h 1.29774 c -0.58988,1.698854 -1.4865,2.430305 -3.56288,2.760638 l 0.37752,2.453901 c 3.4685,-0.235952 5.49769,-2.052783 6.34711,-5.214539 z"
           style="font-weight:bold;font-size:23.5952px;line-height:1.25;font-family:'Fira Sans Condensed';-inkscape-font-specification:'Fira Sans Condensed, ';fill:#ffffff;stroke-width:0.264583"
           id="path877" />
        <path
           d="m 242.63425,71.790224 c -3.27973,0 -5.71004,2.571876 -5.71004,6.417894 0,3.822422 2.43031,6.370704 5.71004,6.370704 3.25614,0 5.63925,-2.571877 5.63925,-6.370704 0,-3.846018 -2.40671,-6.417894 -5.63925,-6.417894 z m 0,11.278505 c -2.33593,0 -4.03478,-1.76964 -4.03478,-4.860611 0,-3.114566 1.69885,-4.907802 4.03478,-4.907802 2.31233,0 3.96399,1.793236 3.96399,4.907802 0,3.090971 -1.65166,4.860611 -3.96399,4.860611 z m 1.15616,-4.530278 c 0.61348,-0.330333 1.13257,-0.896618 1.13257,-1.746045 0,-1.392117 -0.9438,-2.099973 -2.76064,-2.099973 h -1.72244 v 6.630251 h 1.51009 v -2.430305 h 0.4955 l 1.10897,2.430305 h 1.72245 z m -1.84042,-2.619067 h 0.58988 c 0.51909,0 0.84943,0.235952 0.84943,0.802236 0,0.613475 -0.37753,0.849427 -0.82584,0.849427 h -0.61347 z"
           style="font-weight:bold;font-size:23.5952px;line-height:1.25;font-family:'Fira Sans Condensed';-inkscape-font-specification:'Fira Sans Condensed, ';fill:#ffffff;stroke-width:0.264583"
           id="path879" />
      </g>
    </g>
  </g>
</svg>
