<?xml version="1.0" encoding="UTF-8" standalone="no"?>
<!-- Created with Inkscape (http://www.inkscape.org/) -->

<svg
   xmlns:dc="http://purl.org/dc/elements/1.1/"
   xmlns:cc="http://creativecommons.org/ns#"
   xmlns:rdf="http://www.w3.org/1999/02/22-rdf-syntax-ns#"
   xmlns:svg="http://www.w3.org/2000/svg"
   xmlns="http://www.w3.org/2000/svg"
   xmlns:sodipodi="http://sodipodi.sourceforge.net/DTD/sodipodi-0.dtd"
   xmlns:inkscape="http://www.inkscape.org/namespaces/inkscape"
   width="32"
   height="32"
   viewBox="0 0 8.4666665 8.4666669"
   version="1.1"
   id="svg8"
   inkscape:version="0.92.4 5da689c313, 2019-01-14"
   sodipodi:docname="map_marker.svg"
   inkscape:export-filename="/home/kim/Workspace/Go/src/slu.se/Safedeposit/static/images/map_marker.png"
   inkscape:export-xdpi="96"
   inkscape:export-ydpi="96">
  <defs
     id="defs2" />
  <sodipodi:namedview
     id="base"
     pagecolor="#ffffff"
     bordercolor="#666666"
     borderopacity="1.0"
     inkscape:pageopacity="0.0"
     inkscape:pageshadow="2"
     inkscape:zoom="22.627417"
     inkscape:cx="16.308561"
     inkscape:cy="16.408741"
     inkscape:document-units="px"
     inkscape:current-layer="layer1"
     showgrid="false"
     units="px"
     inkscape:window-width="1920"
     inkscape:window-height="1015"
     inkscape:window-x="0"
     inkscape:window-y="28"
     inkscape:window-maximized="1"
     showguides="false" />
  <metadata
     id="metadata5">
    <rdf:RDF>
      <cc:Work
         rdf:about="">
        <dc:format>image/svg+xml</dc:format>
        <dc:type
           rdf:resource="http://purl.org/dc/dcmitype/StillImage" />
        <dc:title />
      </cc:Work>
    </rdf:RDF>
  </metadata>
  <g
     inkscape:label="Layer 1"
     inkscape:groupmode="layer"
     id="layer1"
     transform="translate(0,-288.53332)">
    <circle
       style="opacity:1;fill:#df5969;fill-opacity:1;stroke:none;stroke-width:0.36140794;stroke-miterlimit:10;stroke-dasharray:none;stroke-opacity:1"
       id="path815"
       cx="4.2333331"
       cy="291.70831"
       r="3.175" />
    <path
       style="opacity:1;fill:#df5969;fill-opacity:1;stroke:none;stroke-width:0.34809589;stroke-miterlimit:10;stroke-dasharray:none;stroke-opacity:1"
       d="m 2.6458333,293.21143 h 3.1749999 l -1.5874999,3.78856 z"
       id="rect817"
       inkscape:connector-curvature="0"
       sodipodi:nodetypes="cccc" />
    <path
       style="opacity:1;fill:#3a3a3a;fill-opacity:0.47524756;stroke:none;stroke-width:1.49173534;stroke-miterlimit:10;stroke-dasharray:none;stroke-opacity:1"
       d="M 16 2 A 9.9999997 9.9999997 0 0 0 6 12 A 9.9999997 9.9999997 0 0 0 16 22 A 9.9999997 9.9999997 0 0 0 26 12 A 9.9999997 9.9999997 0 0 0 16 2 z M 16 3 A 8.9999987 8.9999987 0 0 1 25 12 A 8.9999987 8.9999987 0 0 1 16 21 A 8.9999987 8.9999987 0 0 1 7 12 A 8.9999987 8.9999987 0 0 1 16 3 z "
       transform="matrix(0.26458333,0,0,0.26458333,0,288.53332)"
       id="path832" />
    <circle
       style="opacity:1;fill:#ffffff;fill-opacity:0.47524755;stroke:none;stroke-width:0.42979592;stroke-miterlimit:10;stroke-dasharray:none;stroke-opacity:1"
       id="path820"
       cx="4.2333331"
       cy="291.70831"
       r="2.3812499" />
  </g>
</svg>
