<?xml version="1.0" encoding="UTF-8" standalone="no"?>
<svg
   width="32"
   height="32"
   viewBox="0 0 8.4666665 8.4666668"
   version="1.1"
   id="svg8"
   inkscape:version="1.1.2 (0a00cf5339, 2022-02-04)"
   sodipodi:docname="user.svg"
   xmlns:inkscape="http://www.inkscape.org/namespaces/inkscape"
   xmlns:sodipodi="http://sodipodi.sourceforge.net/DTD/sodipodi-0.dtd"
   xmlns="http://www.w3.org/2000/svg"
   xmlns:svg="http://www.w3.org/2000/svg"
   xmlns:rdf="http://www.w3.org/1999/02/22-rdf-syntax-ns#"
   xmlns:cc="http://creativecommons.org/ns#"
   xmlns:dc="http://purl.org/dc/elements/1.1/">
  <defs
     id="defs2" />
  <sodipodi:namedview
     id="base"
     pagecolor="#d4d4d4"
     bordercolor="#666666"
     borderopacity="1.0"
     inkscape:pageopacity="0"
     inkscape:pageshadow="2"
     inkscape:zoom="22.627417"
     inkscape:cx="17.324116"
     inkscape:cy="16.594912"
     inkscape:document-units="px"
     inkscape:current-layer="layer1"
     inkscape:document-rotation="0"
     showgrid="false"
     units="px"
     inkscape:pagecheckerboard="false"
     inkscape:window-width="1920"
     inkscape:window-height="1022"
     inkscape:window-x="0"
     inkscape:window-y="30"
     inkscape:window-maximized="1" />
  <metadata
     id="metadata5">
    <rdf:RDF>
      <cc:Work
         rdf:about="">
        <dc:format>image/svg+xml</dc:format>
        <dc:type
           rdf:resource="http://purl.org/dc/dcmitype/StillImage" />
      </cc:Work>
    </rdf:RDF>
  </metadata>
  <g
     inkscape:label="Layer 1"
     inkscape:groupmode="layer"
     id="layer1">
    <path
       id="rect1017"
       style="fill:#3b2b2b;fill-opacity:0.99607843;stroke-width:2;stroke-linecap:round"
       d="M 0 0 L 0 32 L 32 32 L 32 0 L 0 0 z M 15.904297 2 A 5.9999996 5.9999996 0 0 0 15.876953 2.0019531 A 14 14 0 0 1 16 2 A 14 14 0 0 1 16.121094 2.0019531 A 5.9999996 5.9999996 0 0 1 21.904297 6.9433594 C 22.002257 6.551268 22.605649 6.4367698 22.689453 6.9785156 C 22.874057 7.5372326 22.199513 7.86193 22.232422 8.3945312 C 22.178313 8.7241473 22.545079 9.4867269 22.003906 9.4863281 C 21.917989 9.4048041 21.892367 9.301415 21.878906 9.1933594 A 5.9999996 5.9999996 0 0 1 18.634766 13.388672 A 9.9999994 11 0 0 1 26 24 A 9.9999994 11 0 0 1 25.839844 25.958984 A 14 14 0 0 1 16 30 A 14 14 0 0 1 6.1601562 25.958984 A 9.9999994 11 0 0 1 6 24 A 9.9999994 11 0 0 1 13.365234 13.388672 A 5.9999996 5.9999996 0 0 1 10.097656 9.0742188 C 10.086816 9.2256431 10.078184 9.3750765 9.9609375 9.4863281 C 9.4197658 9.4867269 9.7884827 8.7241476 9.734375 8.3945312 C 9.7672837 7.86193 9.0907872 7.5372326 9.2753906 6.9785156 C 9.3698449 6.3679231 10.122516 6.5922668 10.068359 7.1074219 A 5.9999996 5.9999996 0 0 1 15.876953 2.0019531 A 14 14 0 0 0 15.685547 2.0039062 A 14 14 0 0 1 15.904297 2 z M 24.712891 5.0429688 A 14 14 0 0 1 25.197266 5.4453125 A 14 14 0 0 0 24.712891 5.0429688 z "
       transform="scale(0.26458333)" />
  </g>
</svg>
