<?xml version="1.0" encoding="UTF-8" standalone="no"?>
<svg
   xmlns:dc="http://purl.org/dc/elements/1.1/"
   xmlns:cc="http://creativecommons.org/ns#"
   xmlns:rdf="http://www.w3.org/1999/02/22-rdf-syntax-ns#"
   xmlns:svg="http://www.w3.org/2000/svg"
   xmlns="http://www.w3.org/2000/svg"
   xmlns:sodipodi="http://sodipodi.sourceforge.net/DTD/sodipodi-0.dtd"
   xmlns:inkscape="http://www.inkscape.org/namespaces/inkscape"
   width="240"
   height="240"
   viewBox="0 0 240 240"
   id="svg2"
   version="1.1"
   inkscape:version="1.0.2 (e86c870879, 2021-01-15)"
   sodipodi:docname="sites_wtext.svg"
   inkscape:export-filename="/home/kim/Workspace/Android/tagtags2/assets/images/3.0x/siteslogo.png"
   inkscape:export-xdpi="153.60001"
   inkscape:export-ydpi="153.60001">
  <sodipodi:namedview
     id="base"
     pagecolor="#ffffff"
     bordercolor="#666666"
     borderopacity="1.0"
     inkscape:pageopacity="0.0"
     inkscape:pageshadow="2"
     inkscape:zoom="2.8284273"
     inkscape:cx="86.142402"
     inkscape:cy="152.58096"
     inkscape:document-units="px"
     inkscape:current-layer="layer1"
     showgrid="false"
     showguides="false"
     inkscape:guide-bbox="true"
     inkscape:window-width="1920"
     inkscape:window-height="1145"
     inkscape:window-x="0"
     inkscape:window-y="23"
     inkscape:window-maximized="1"
     units="px"
     inkscape:document-rotation="0" />
  <defs
     id="defs4">
    <clipPath
       clipPathUnits="userSpaceOnUse"
       id="clipPath216">
      <path
         d="m 652.083,465.851 178.334,0 0,-53.237 -178.334,0 0,53.237 z"
         id="path218"
         inkscape:connector-curvature="0" />
    </clipPath>
    <clipPath
       clipPathUnits="userSpaceOnUse"
       id="clipPath200">
      <path
         d="m 625.972,497.481 231.805,0 0,-66.085 -231.805,0 0,66.085 z"
         id="path202"
         inkscape:connector-curvature="0" />
    </clipPath>
  </defs>
  <metadata
     id="metadata7">
    <rdf:RDF>
      <cc:Work
         rdf:about="">
        <dc:format>image/svg+xml</dc:format>
        <dc:type
           rdf:resource="http://purl.org/dc/dcmitype/StillImage" />
        <dc:title />
      </cc:Work>
    </rdf:RDF>
  </metadata>
  <g
     transform="translate(0,-812.36216)"
     id="layer1"
     inkscape:groupmode="layer"
     inkscape:label="Layer 1">
    <g
       id="g20"
       transform="matrix(0.30814881,0,0,-0.30814881,52.930542,947.9421)">
      <path
         d="m 0,0 c -14.076,-25.611 -43.378,-29.072 -51.222,-29.994 -5.308,-0.693 -10.846,-1.154 -16.383,-1.154 -32.303,0 -50.531,10.843 -61.376,19.613 -4.384,3.691 -6.46,5.998 -12.921,13.613 l 30.917,19.383 c 0.693,-0.693 3.924,-4.385 7.154,-6.922 10.614,-8.769 26.304,-13.615 39.917,-13.615 1.846,0 7.384,0 12.692,1.615 1.153,0.231 17.304,4.846 17.304,17.307 0,14.996 -21.69,15.459 -36.226,17.537 -7.616,0.922 -15.458,2.305 -23.073,4.15 -11.768,2.998 -22.613,7.383 -30.686,17.076 -1.617,1.846 -4.847,5.998 -6.925,11.996 -0.691,2.309 -2.075,7.616 -2.075,14.307 0,1.383 0.23,6.692 0.922,11.305 1.847,10.383 6.229,18.691 14.075,26.074 8.075,7.613 23.995,17.076 50.762,17.076 9.92,0 31.612,-1.154 53.763,-16.152 5.535,-3.692 8.768,-6.461 17.996,-14.537 L -25.381,87.219 c -9.001,8.767 -15.228,13.845 -27.459,17.765 -2.076,0.463 -8.306,2.311 -15.226,2.311 -16.614,0 -24.229,-9.693 -24.229,-17.305 0,-4.385 2.309,-7.385 3.461,-8.541 5.537,-5.998 14.538,-5.767 29.767,-8.074 9.227,-1.383 18.225,-3.23 27.226,-5.307 C -26.073,66.914 -5.076,62.762 3.23,42.916 4.384,39.92 6.46,33.689 6.46,25.383 6.46,20.768 5.999,11.076 0,0"
         style="fill:#616265;fill-opacity:1;fill-rule:nonzero;stroke:none"
         id="path22"
         inkscape:connector-curvature="0" />
    </g>
    <path
       d="m 61.961001,906.205 12.514229,0 0,50.198 -12.514229,0 0,-50.198 z"
       style="fill:#616265;fill-opacity:1;fill-rule:nonzero;stroke:none"
       id="path24"
       inkscape:connector-curvature="0" />
    <g
       id="g26"
       transform="matrix(0.30814881,0,0,-0.30814881,106.82678,916.0884)">
      <path
         d="m 0,0 0,-130.828 -41.073,0 0,130.828 -42.456,0 0,32.074 125.75,0 L 42.221,0 0,0 Z"
         style="fill:#616265;fill-opacity:1;fill-rule:nonzero;stroke:none"
         id="path28"
         inkscape:connector-curvature="0" />
    </g>
    <g
       id="g30"
       transform="matrix(0.30814881,0,0,-0.30814881,126.52274,956.403)">
      <path
         d="m 0,0 0,162.902 120.439,0 0,-31.381 -79.832,0 0,-29.765 74.53,0 0,-30.92 -74.53,0 0,-38.762 87.217,0 L 127.824,0 0,0 Z"
         style="fill:#616265;fill-opacity:1;fill-rule:nonzero;stroke:none"
         id="path32"
         inkscape:connector-curvature="0" />
    </g>
    <g
       id="g34"
       transform="matrix(0.30814881,0,0,-0.30814881,184.71953,919.7092)">
      <path
         d="m 0,0 c -0.076,-0.551 -0.115,-1.098 -0.115,-1.631 0,-4.385 2.304,-7.385 3.461,-8.541 5.539,-5.998 14.537,-5.767 29.765,-8.074 9.229,-1.383 18.229,-3.231 27.229,-5.307 5.767,-1.154 26.764,-5.306 35.068,-25.152 1.155,-2.996 3.235,-9.227 3.235,-17.533 0,-4.616 -0.465,-14.307 -6.465,-25.383 -14.073,-25.611 -43.377,-29.072 -51.219,-29.994 -5.311,-0.694 -10.848,-1.155 -16.385,-1.155 -32.303,0 -50.533,10.844 -61.375,19.614 -4.385,3.691 -6.461,5.998 -12.922,13.613 l 30.918,19.383 c 0.694,-0.694 3.924,-4.385 7.153,-6.922 10.613,-8.77 26.304,-13.615 39.918,-13.615 1.845,0 7.382,0 12.693,1.615 1.15,0.23 17.301,4.846 17.301,17.307 0,14.996 -21.688,15.459 -36.223,17.537 -7.615,0.922 -15.461,2.304 -23.076,4.15 -11.766,2.998 -22.609,7.383 -30.688,17.076 -1.615,1.846 -4.845,5.998 -6.919,11.996 -0.694,2.309 -2.079,7.616 -2.079,14.307 0,1.383 0.229,6.691 0.924,11.305 1.377,7.752 4.166,14.343 8.758,20.259"
         style="fill:#616265;fill-opacity:1;fill-rule:nonzero;stroke:none"
         id="path36"
         inkscape:connector-curvature="0" />
    </g>
    <g
       id="g38"
       transform="matrix(0.30814881,0,0,-0.30814881,14.780864,973.4397)">
      <path
         d="m 0,0 c -0.725,-2.583 -2.854,-4.895 -8.293,-4.895 -2.266,0 -4.668,0.318 -6.571,1.813 -1.042,0.815 -1.45,1.677 -1.677,2.176 -0.362,0.906 -0.635,1.495 -0.635,3.307 l 0,4.668 5.847,0 0,-3.715 c 0,-1.179 -0.091,-2.539 1.042,-3.263 0.362,-0.227 0.906,-0.453 1.812,-0.453 1.043,0 1.632,0.226 2.04,0.589 0.861,0.679 0.861,2.084 0.861,4.259 0,0.409 0.091,1.859 -0.634,2.946 -0.453,0.679 -1.133,1.088 -1.359,1.269 l -5.575,3.762 c -1.223,0.815 -1.858,1.313 -2.673,2.628 -0.68,1.133 -1.134,2.356 -1.134,5.076 0,0.453 -0.045,2.719 0.77,4.395 1.814,3.898 7.297,3.898 7.931,3.898 0.952,0 6.073,0 7.75,-4.215 C -0.181,23.43 0,23.112 0,21.571 l 0,-3.172 -5.891,0 0,3.263 c 0,0.951 -0.363,2.312 -2.629,2.312 -1.359,0 -2.628,-0.499 -2.628,-3.173 0,-0.136 -0.09,-2.039 0.634,-3.081 0.182,-0.273 0.589,-0.59 1.224,-1.043 l 5.71,-3.943 c 0.408,-0.271 1.677,-1.223 2.629,-2.492 C 0.453,8.384 0.317,6.979 0.317,4.713 0.317,2.266 0.317,1.224 0,0"
         style="fill:#616265;fill-opacity:1;fill-rule:nonzero;stroke:none"
         id="path40"
         inkscape:connector-curvature="0" />
    </g>
    <g
       id="g42"
       transform="matrix(0.30814881,0,0,-0.30814881,21.261633,974.7384)">
      <path
         d="M 0,0 -5.076,0 -7.342,13.777 -10.061,0 l -5.121,0 -4.713,23.203 5.257,0 2.448,-15.317 2.718,15.317 4.396,0 L -2.629,7.886 0,23.203 l 5.257,0 L 0,0 Z"
         style="fill:#616265;fill-opacity:1;fill-rule:nonzero;stroke:none"
         id="path44"
         inkscape:connector-curvature="0" />
    </g>
    <g
       id="g46"
       transform="matrix(0.30814881,0,0,-0.30814881,26.024378,969.4737)">
      <path
         d="M 0,0 C 0,0.499 0.091,2.312 -1.857,2.312 -3.807,2.312 -3.852,0.589 -3.852,0 l 0,-2.854 3.852,0 L 0,0 Z m -3.852,-6.662 0,-3.807 c 0,-0.815 0,-1.133 0.136,-1.54 0.362,-1.179 1.405,-1.314 1.859,-1.314 0.86,0 1.45,0.453 1.721,1.268 0.227,0.635 0.182,2.312 0.182,2.629 l 5.211,0 0,-1.858 c 0,-0.816 0,-1.315 -0.227,-2.085 -0.906,-3.263 -3.806,-4.169 -6.887,-4.169 -4.759,0 -6.345,2.356 -6.98,4.441 -0.317,1.133 -0.408,2.765 -0.408,3.036 l 0,9.79 c 0,0.362 0.046,1.903 0.59,3.126 1.133,2.719 4.124,3.716 6.843,3.716 3.761,0 5.845,-1.903 6.526,-3.308 0.407,-0.816 0.634,-1.54 0.634,-3.308 l 0,-6.617 -9.2,0 z"
         style="fill:#616265;fill-opacity:1;fill-rule:nonzero;stroke:none"
         id="path48"
         inkscape:connector-curvature="0" />
    </g>
    <g
       id="g50"
       transform="matrix(0.30814881,0,0,-0.30814881,31.429644,969.5435)">
      <path
         d="M 0,0 C 0,1.042 -0.046,1.768 -0.997,2.312 -1.586,2.629 -2.039,2.674 -2.312,2.674 -2.538,2.674 -3.036,2.629 -3.49,2.312 -4.396,1.677 -4.351,0.726 -4.351,-0.271 l 0,-9.88 c 0,-1.36 0.136,-1.859 0.771,-2.266 0.181,-0.136 0.725,-0.362 1.313,-0.362 0.771,0 1.451,0.316 1.859,0.906 C -0.091,-11.42 0,-10.967 0,-9.97 L 0,0 Z M -0.046,-16.858 0,-14.593 c -0.544,-0.77 -1.723,-2.763 -4.532,-2.719 -1.631,0 -2.674,0.635 -3.218,0.998 -1.722,1.268 -1.948,2.764 -1.948,6.435 l 0,10.559 c 0,0.816 -0.227,3.806 2.356,5.393 0.408,0.227 1.36,0.77 2.674,0.77 1.994,0 3.354,-1.133 4.668,-2.357 l 0,10.651 5.393,0 0,-31.995 -5.439,0 z"
         style="fill:#616265;fill-opacity:1;fill-rule:nonzero;stroke:none"
         id="path52"
         inkscape:connector-curvature="0" />
    </g>
    <path
       d="m 34.055973,967.5885 1.675708,0 0,7.15 -1.675708,0 0,-7.15 z m 0,-2.7092 1.675708,0 0,1.6757 -1.675708,0 0,-1.6757 z"
       style="fill:#616265;fill-opacity:1;fill-rule:nonzero;stroke:none"
       id="path54"
       inkscape:connector-curvature="0" />
    <g
       id="g56"
       transform="matrix(0.30814881,0,0,-0.30814881,40.45231,974.2356)">
      <path
         d="m 0,0 c -0.997,-1.224 -2.629,-2.085 -5.937,-2.085 -2.584,0 -5.438,0.498 -6.572,3.218 -0.498,1.178 -0.498,2.583 -0.498,2.991 l 0,2.401 4.986,0 0,-1.812 c 0,-0.771 0.044,-1.042 0.135,-1.45 0.091,-0.544 0.544,-1.496 1.949,-1.496 0.181,0 0.77,0 1.223,0.317 0.453,0.272 0.906,0.997 0.906,2.221 0,1.676 -0.271,2.04 -1.586,2.991 l -4.531,3.218 c -2.176,1.541 -2.764,2.9 -2.764,5.574 0.044,4.622 2.854,5.936 7.024,5.936 3.398,0 5.257,-1.177 5.981,-2.492 0.544,-0.906 0.635,-1.858 0.635,-2.809 l 0,-2.584 -4.668,0 0,1.676 c 0,0.364 0.091,2.539 -1.994,2.539 -0.226,0 -0.544,0 -0.997,-0.227 -0.68,-0.408 -0.86,-1.133 -0.86,-1.858 0,-1.36 0.498,-1.813 1.541,-2.538 l 4.984,-3.49 C -0.59,9.925 -0.046,9.335 0.362,8.837 0.906,8.066 1.224,7.024 1.224,5.075 1.224,3.308 1.224,1.495 0,0"
         style="fill:#616265;fill-opacity:1;fill-rule:nonzero;stroke:none"
         id="path58"
         inkscape:connector-curvature="0" />
    </g>
    <g
       id="g60"
       transform="matrix(0.30814881,0,0,-0.30814881,44.572319,974.7384)">
      <path
         d="m 0,0 0,16.496 c 0,0.951 0,1.359 -0.181,1.813 -0.317,0.679 -1.043,1.042 -1.813,1.042 -1.45,0 -1.903,-1.087 -2.039,-1.586 -0.091,-0.363 -0.091,-0.544 -0.091,-0.952 l 0,-16.813 -5.393,0 0,31.995 5.302,0 0.046,-10.65 c 0.589,0.634 2.039,2.311 4.713,2.311 2.085,0 3.852,-1.133 4.532,-3.172 0.181,-0.544 0.318,-1.133 0.318,-2.311 L 5.394,0 0,0 Z"
         style="fill:#616265;fill-opacity:1;fill-rule:nonzero;stroke:none"
         id="path62"
         inkscape:connector-curvature="0" />
    </g>
    <path
       d="m 50.18725,964.8793 1.801744,0 0,9.8592 -1.801744,0 0,-9.8592 z"
       style="fill:#616265;fill-opacity:1;fill-rule:nonzero;stroke:none"
       id="path64"
       inkscape:connector-curvature="0" />
    <g
       id="g66"
       transform="matrix(0.30814881,0,0,-0.30814881,55.969298,974.7384)">
      <path
         d="m 0,0 0,17.085 c 0,1.45 -0.091,2.039 -0.816,2.493 -0.181,0.136 -0.498,0.272 -1.042,0.272 -2.538,0 -2.312,-2.674 -2.312,-3.127 l 0,-16.723 -5.393,0 0,23.203 5.484,0 -0.045,-1.677 c 1.404,1.36 2.537,2.13 4.622,2.13 2.13,0 4.124,-1.088 4.668,-3.262 0.182,-0.635 0.182,-1.043 0.182,-2.267 L 5.348,0 0,0 Z"
         style="fill:#616265;fill-opacity:1;fill-rule:nonzero;stroke:none"
         id="path68"
         inkscape:connector-curvature="0" />
    </g>
    <g
       id="g70"
       transform="matrix(0.30814881,0,0,-0.30814881,60.81543,966.234)">
      <path
         d="m 0,0 c -0.997,-0.227 -0.997,-1.313 -0.997,-1.54 l 0,-2.856 2.402,0 0,-3.58 -2.447,0 0,-19.623 -5.348,0 0,19.623 -2.402,0 0,3.58 2.402,0 c 0,4.849 -0.045,3.853 0.136,5.167 0.182,1.45 0.906,2.175 1.359,2.583 1.27,1.087 2.856,1.133 4.488,1.133 0.679,0 1.359,-0.046 1.994,-0.091 l 0,-4.441 C 0.816,0.046 0.317,0.091 0,0"
         style="fill:#616265;fill-opacity:1;fill-rule:nonzero;stroke:none"
         id="path72"
         inkscape:connector-curvature="0" />
    </g>
    <g
       id="g74"
       transform="matrix(0.30814881,0,0,-0.30814881,65.047354,969.1105)">
      <path
         d="m 0,0 c -0.408,0.181 -0.861,0.362 -1.768,0.362 -0.317,0 -1.223,0 -2.039,-0.544 -1.496,-1.042 -1.45,-2.855 -1.45,-4.395 l 0,-13.687 -5.347,0 0,23.203 5.392,0 -0.045,-2.945 c 0.136,0.227 0.362,0.77 0.816,1.36 1.496,1.994 3.535,2.039 4.486,1.994 L 0,0 Z"
         style="fill:#616265;fill-opacity:1;fill-rule:nonzero;stroke:none"
         id="path76"
         inkscape:connector-curvature="0" />
    </g>
    <g
       id="g78"
       transform="matrix(0.30814881,0,0,-0.30814881,68.217904,971.1354)">
      <path
         d="m 0,0 -2.629,-1.723 c -0.182,-0.135 -0.408,-0.316 -0.453,-0.362 -0.68,-0.635 -0.771,-1.541 -0.771,-3.353 0,-1.722 0.227,-2.719 1.315,-2.674 0.77,0 1.359,0.317 1.948,0.815 L 0,-6.798 0,0 Z m 0.771,-11.692 c -0.455,0.498 -0.544,0.906 -0.635,2.039 -0.273,-0.272 -0.499,-0.589 -0.816,-0.861 -0.59,-0.59 -1.722,-1.676 -3.852,-1.676 -0.453,0 -1.722,0.044 -2.81,0.86 -1.903,1.405 -1.767,4.17 -1.767,6.209 0,1.677 -0.091,3.398 1.088,4.759 0.633,0.769 1.541,1.268 2.447,1.721 l 5.619,2.81 0,1.359 c 0,1.361 -0.136,2.04 -0.725,2.448 -0.226,0.136 -0.59,0.317 -1.178,0.317 -0.227,0 -1.269,0 -1.677,-0.906 C -3.717,6.979 -3.717,6.208 -3.717,5.212 l 0,-0.861 -4.939,0 0,2.628 c 0,0.543 0.091,2.129 1.314,3.308 0.951,0.952 2.855,1.722 5.846,1.722 0.68,0 4.713,0.046 6.345,-2.901 C 5.393,8.157 5.393,7.296 5.393,6.889 l 0,-12.916 c 0,-1.27 -0.136,-4.124 0.679,-5.257 0.045,-0.137 0.136,-0.227 0.363,-0.408 l -5.664,0 z"
         style="fill:#616265;fill-opacity:1;fill-rule:nonzero;stroke:none"
         id="path80"
         inkscape:connector-curvature="0" />
    </g>
    <g
       id="g82"
       transform="matrix(0.30814881,0,0,-0.30814881,74.60086,974.2356)">
      <path
         d="m 0,0 c -0.997,-1.224 -2.629,-2.085 -5.937,-2.085 -2.584,0 -5.438,0.498 -6.572,3.218 -0.498,1.178 -0.498,2.583 -0.498,2.991 l 0,2.401 4.986,0 0,-1.812 c 0,-0.771 0.044,-1.042 0.135,-1.45 0.091,-0.544 0.544,-1.496 1.949,-1.496 0.181,0 0.77,0 1.223,0.317 0.453,0.272 0.906,0.997 0.906,2.221 0,1.676 -0.271,2.04 -1.586,2.991 l -4.531,3.218 c -2.176,1.541 -2.764,2.9 -2.764,5.574 0.044,4.622 2.854,5.936 7.024,5.936 3.398,0 5.257,-1.177 5.981,-2.492 0.544,-0.906 0.635,-1.858 0.635,-2.809 l 0,-2.584 -4.668,0 0,1.676 c 0,0.364 0.091,2.539 -1.994,2.539 -0.226,0 -0.544,0 -0.997,-0.227 -0.68,-0.408 -0.86,-1.133 -0.86,-1.858 0,-1.36 0.498,-1.813 1.541,-2.538 l 4.984,-3.49 C -0.59,9.925 -0.046,9.335 0.362,8.837 0.906,8.066 1.224,7.024 1.224,5.075 1.224,3.308 1.224,1.495 0,0"
         style="fill:#616265;fill-opacity:1;fill-rule:nonzero;stroke:none"
         id="path84"
         inkscape:connector-curvature="0" />
    </g>
    <g
       id="g86"
       transform="matrix(0.30814881,0,0,-0.30814881,77.994727,974.8083)">
      <path
         d="m 0,0 c -3.127,0 -4.759,0.68 -5.438,2.175 -0.408,0.816 -0.454,1.767 -0.454,2.674 l 0,15.001 -2.945,0 0,3.58 2.9,0 0,8.429 5.348,0 0,-8.429 3.218,0 0,-3.58 -3.218,0 0,-13.234 c 0,-0.724 0,-0.906 0.136,-1.268 0.317,-1.088 1.359,-1.269 2.311,-1.269 0.318,0 0.589,0.045 0.907,0.09 l 0,-3.898 C 2.176,0.136 1.405,0 0,0"
         style="fill:#616265;fill-opacity:1;fill-rule:nonzero;stroke:none"
         id="path88"
         inkscape:connector-curvature="0" />
    </g>
    <g
       id="g90"
       transform="matrix(0.30814881,0,0,-0.30814881,82.561891,969.1105)">
      <path
         d="m 0,0 c -0.408,0.181 -0.861,0.362 -1.768,0.362 -0.317,0 -1.223,0 -2.039,-0.544 -1.496,-1.042 -1.45,-2.855 -1.45,-4.395 l 0,-13.687 -5.347,0 0,23.203 5.392,0 -0.045,-2.945 c 0.136,0.227 0.362,0.77 0.816,1.36 1.496,1.994 3.535,2.039 4.486,1.994 L 0,0 Z"
         style="fill:#616265;fill-opacity:1;fill-rule:nonzero;stroke:none"
         id="path92"
         inkscape:connector-curvature="0" />
    </g>
    <g
       id="g94"
       transform="matrix(0.30814881,0,0,-0.30814881,86.01171,974.7384)">
      <path
         d="m 0,0 0,1.903 c -0.59,-0.544 -2.356,-2.311 -4.939,-2.311 -0.455,0 -1.632,0.091 -2.72,0.816 -1.859,1.314 -1.813,3.354 -1.813,5.302 l 0,17.493 5.439,0 0,-16.678 c 0,-0.815 -0.091,-1.63 0.498,-2.219 0.408,-0.409 0.906,-0.59 1.45,-0.59 0.182,0 0.861,0.046 1.359,0.453 C 0.181,4.939 0,6.662 0,6.798 l 0,16.405 5.438,0 L 5.438,0 0,0 Z"
         style="fill:#616265;fill-opacity:1;fill-rule:nonzero;stroke:none"
         id="path96"
         inkscape:connector-curvature="0" />
    </g>
    <g
       id="g98"
       transform="matrix(0.30814881,0,0,-0.30814881,92.743119,974.152)">
      <path
         d="m 0,0 c -1.948,-2.447 -5.257,-2.356 -6.027,-2.356 -3.354,0 -5.121,1.042 -6.163,2.174 -0.136,0.182 -0.635,0.862 -0.952,1.632 -0.363,0.952 -0.454,1.904 -0.454,2.946 l 0,10.288 c 0,1.676 0.227,3.081 1.27,4.44 1.994,2.584 5.574,2.629 6.299,2.629 0.544,0 5.393,0 6.888,-3.489 0.272,-0.68 0.453,-1.451 0.453,-2.992 l 0,-2.764 -5.301,0 0,2.809 c 0,0.59 -0.046,0.862 -0.091,1.134 -0.136,0.498 -0.635,1.495 -1.949,1.45 -0.634,0 -1.042,-0.181 -1.269,-0.317 -0.725,-0.499 -0.952,-1.224 -0.952,-2.81 l 0,-10.106 c 0,-0.815 0,-1.179 0.137,-1.586 0.271,-0.952 1.042,-1.45 1.993,-1.45 0.137,0 0.725,0.045 1.179,0.317 0.861,0.589 0.906,1.767 0.906,2.673 l 0,2.674 5.347,0 0,-2.628 C 1.314,3.942 1.405,1.768 0,0"
         style="fill:#616265;fill-opacity:1;fill-rule:nonzero;stroke:none"
         id="path100"
         inkscape:connector-curvature="0" />
    </g>
    <g
       id="g102"
       transform="matrix(0.30814881,0,0,-0.30814881,96.095449,974.8083)">
      <path
         d="m 0,0 c -3.127,0 -4.759,0.68 -5.438,2.175 -0.408,0.816 -0.454,1.767 -0.454,2.674 l 0,15.001 -2.945,0 0,3.58 2.9,0 0,8.429 5.348,0 0,-8.429 3.218,0 0,-3.58 -3.218,0 0,-13.234 c 0,-0.724 0,-0.906 0.136,-1.268 0.317,-1.088 1.359,-1.269 2.311,-1.269 0.318,0 0.589,0.045 0.907,0.09 l 0,-3.898 C 2.176,0.136 1.405,0 0,0"
         style="fill:#616265;fill-opacity:1;fill-rule:nonzero;stroke:none"
         id="path104"
         inkscape:connector-curvature="0" />
    </g>
    <g
       id="g106"
       transform="matrix(0.30814881,0,0,-0.30814881,100.31354,974.7384)">
      <path
         d="m 0,0 0,1.903 c -0.59,-0.544 -2.356,-2.311 -4.939,-2.311 -0.455,0 -1.632,0.091 -2.72,0.816 -1.859,1.314 -1.813,3.354 -1.813,5.302 l 0,17.493 5.439,0 0,-16.678 c 0,-0.815 -0.091,-1.63 0.498,-2.219 0.408,-0.409 0.906,-0.59 1.45,-0.59 0.182,0 0.861,0.046 1.359,0.453 C 0.181,4.939 0,6.662 0,6.798 l 0,16.405 5.438,0 L 5.438,0 0,0 Z"
         style="fill:#616265;fill-opacity:1;fill-rule:nonzero;stroke:none"
         id="path108"
         inkscape:connector-curvature="0" />
    </g>
    <g
       id="g110"
       transform="matrix(0.30814881,0,0,-0.30814881,106.20747,969.1105)">
      <path
         d="m 0,0 c -0.408,0.181 -0.861,0.362 -1.768,0.362 -0.317,0 -1.223,0 -2.039,-0.544 -1.496,-1.042 -1.45,-2.855 -1.45,-4.395 l 0,-13.687 -5.347,0 0,23.203 5.392,0 -0.045,-2.945 c 0.136,0.227 0.362,0.77 0.816,1.36 1.496,1.994 3.535,2.039 4.486,1.994 L 0,0 Z"
         style="fill:#616265;fill-opacity:1;fill-rule:nonzero;stroke:none"
         id="path112"
         inkscape:connector-curvature="0" />
    </g>
    <g
       id="g114"
       transform="matrix(0.30814881,0,0,-0.30814881,109.50321,969.4737)">
      <path
         d="M 0,0 C 0,0.499 0.091,2.312 -1.857,2.312 -3.807,2.312 -3.852,0.589 -3.852,0 l 0,-2.854 3.852,0 L 0,0 Z m -3.852,-6.662 0,-3.807 c 0,-0.815 0,-1.133 0.136,-1.54 0.362,-1.179 1.405,-1.314 1.859,-1.314 0.86,0 1.45,0.453 1.721,1.268 0.227,0.635 0.182,2.312 0.182,2.629 l 5.211,0 0,-1.858 c 0,-0.816 0,-1.315 -0.227,-2.085 -0.906,-3.263 -3.806,-4.169 -6.887,-4.169 -4.759,0 -6.345,2.356 -6.98,4.441 -0.317,1.133 -0.408,2.765 -0.408,3.036 l 0,9.79 c 0,0.362 0.046,1.903 0.59,3.126 1.133,2.719 4.124,3.716 6.843,3.716 3.761,0 5.845,-1.903 6.526,-3.308 0.407,-0.816 0.634,-1.54 0.634,-3.308 l 0,-6.617 -9.2,0 z"
         style="fill:#616265;fill-opacity:1;fill-rule:nonzero;stroke:none"
         id="path116"
         inkscape:connector-curvature="0" />
    </g>
    <g
       id="g118"
       transform="matrix(0.30814881,0,0,-0.30814881,117.15729,966.234)">
      <path
         d="m 0,0 c -0.997,-0.227 -0.997,-1.313 -0.997,-1.54 l 0,-2.856 2.402,0 0,-3.58 -2.447,0 0,-19.623 -5.348,0 0,19.623 -2.402,0 0,3.58 2.402,0 c 0,4.849 -0.045,3.853 0.136,5.167 0.182,1.45 0.906,2.175 1.359,2.583 1.27,1.087 2.856,1.133 4.488,1.133 0.679,0 1.359,-0.046 1.994,-0.091 l 0,-4.441 C 0.816,0.046 0.317,0.091 0,0"
         style="fill:#616265;fill-opacity:1;fill-rule:nonzero;stroke:none"
         id="path120"
         inkscape:connector-curvature="0" />
    </g>
    <g
       id="g122"
       transform="matrix(0.30814881,0,0,-0.30814881,120.85841,969.3479)">
      <path
         d="M 0,0 C 0,1.45 -0.136,2.085 -0.86,2.538 -1.223,2.81 -1.677,2.81 -1.857,2.81 -2.446,2.81 -2.764,2.628 -2.945,2.492 -3.807,1.857 -3.761,0.906 -3.761,-0.046 l 0,-11.782 c 0,-0.408 -0.046,-2.402 1.858,-2.402 2.04,0 1.903,2.084 1.903,2.447 L 0,0 Z m 4.034,-15.59 c -2.04,-2.447 -5.257,-2.356 -6.164,-2.356 -1.087,0 -1.903,0.135 -2.31,0.226 -0.907,0.182 -3.4,0.951 -4.306,3.671 -0.272,0.771 -0.408,1.495 -0.408,3.127 l 0,10.378 c 0,1.586 0.181,2.221 0.453,2.945 1.088,2.901 4.124,3.762 6.889,3.762 0.725,0 5.166,0.045 6.617,-3.398 0.362,-0.817 0.543,-1.541 0.543,-3.082 l 0,-11.194 c 0,-1.632 -0.227,-2.81 -1.314,-4.079"
         style="fill:#616265;fill-opacity:1;fill-rule:nonzero;stroke:none"
         id="path124"
         inkscape:connector-curvature="0" />
    </g>
    <g
       id="g126"
       transform="matrix(0.30814881,0,0,-0.30814881,126.64038,969.1105)">
      <path
         d="m 0,0 c -0.408,0.181 -0.861,0.362 -1.768,0.362 -0.317,0 -1.223,0 -2.039,-0.544 -1.496,-1.042 -1.45,-2.855 -1.45,-4.395 l 0,-13.687 -5.347,0 0,23.203 5.392,0 -0.045,-2.945 c 0.136,0.227 0.362,0.77 0.816,1.36 1.496,1.994 3.535,2.039 4.486,1.994 L 0,0 Z"
         style="fill:#616265;fill-opacity:1;fill-rule:nonzero;stroke:none"
         id="path128"
         inkscape:connector-curvature="0" />
    </g>
    <g
       id="g130"
       transform="matrix(0.30814881,0,0,-0.30814881,130.17417,974.7384)">
      <path
         d="m 0,0 0,31.995 15.499,0 0,-4.849 -9.607,0 0,-7.523 9.063,0 0,-4.85 -9.063,0 0,-9.834 10.06,0 L 15.952,0 0,0 Z"
         style="fill:#616265;fill-opacity:1;fill-rule:nonzero;stroke:none"
         id="path132"
         inkscape:connector-curvature="0" />
    </g>
    <g
       id="g134"
       transform="matrix(0.30814881,0,0,-0.30814881,139.74093,974.152)">
      <path
         d="m 0,0 c -1.948,-2.447 -5.257,-2.356 -6.027,-2.356 -3.354,0 -5.121,1.042 -6.163,2.174 -0.136,0.182 -0.635,0.862 -0.953,1.632 -0.362,0.952 -0.453,1.904 -0.453,2.946 l 0,10.288 c 0,1.676 0.227,3.081 1.27,4.44 1.994,2.584 5.574,2.629 6.299,2.629 0.544,0 5.393,0 6.888,-3.489 0.272,-0.68 0.453,-1.451 0.453,-2.992 l 0,-2.764 -5.301,0 0,2.809 c 0,0.59 -0.046,0.862 -0.091,1.134 -0.136,0.498 -0.635,1.495 -1.949,1.45 -0.634,0 -1.042,-0.181 -1.269,-0.317 -0.725,-0.499 -0.952,-1.224 -0.952,-2.81 l 0,-10.106 c 0,-0.815 0,-1.179 0.137,-1.586 0.271,-0.952 1.042,-1.45 1.993,-1.45 0.137,0 0.725,0.045 1.179,0.317 0.861,0.589 0.906,1.767 0.906,2.673 l 0,2.674 5.347,0 0,-2.628 C 1.314,3.942 1.405,1.768 0,0"
         style="fill:#616265;fill-opacity:1;fill-rule:nonzero;stroke:none"
         id="path136"
         inkscape:connector-curvature="0" />
    </g>
    <g
       id="g138"
       transform="matrix(0.30814881,0,0,-0.30814881,143.6241,969.3479)">
      <path
         d="M 0,0 C 0,1.45 -0.137,2.085 -0.861,2.538 -1.224,2.81 -1.678,2.81 -1.858,2.81 -2.447,2.81 -2.765,2.628 -2.946,2.492 -3.808,1.857 -3.762,0.906 -3.762,-0.046 l 0,-11.782 c 0,-0.408 -0.046,-2.402 1.858,-2.402 2.04,0 1.904,2.084 1.904,2.447 L 0,0 Z m 4.033,-15.59 c -2.04,-2.447 -5.257,-2.356 -6.164,-2.356 -1.087,0 -1.903,0.135 -2.31,0.226 -0.907,0.182 -3.4,0.951 -4.306,3.671 -0.272,0.771 -0.408,1.495 -0.408,3.127 l 0,10.378 c 0,1.586 0.181,2.221 0.454,2.945 1.087,2.901 4.123,3.762 6.888,3.762 0.725,0 5.167,0.045 6.617,-3.398 0.362,-0.817 0.543,-1.541 0.543,-3.082 l 0,-11.194 c 0,-1.632 -0.227,-2.81 -1.314,-4.079"
         style="fill:#616265;fill-opacity:1;fill-rule:nonzero;stroke:none"
         id="path140"
         inkscape:connector-curvature="0" />
    </g>
    <g
       id="g142"
       transform="matrix(0.30814881,0,0,-0.30814881,149.90922,974.2356)">
      <path
         d="m 0,0 c -0.997,-1.224 -2.629,-2.085 -5.937,-2.085 -2.584,0 -5.438,0.498 -6.572,3.218 -0.498,1.178 -0.498,2.583 -0.498,2.991 l 0,2.401 4.986,0 0,-1.812 c 0,-0.771 0.044,-1.042 0.135,-1.45 0.091,-0.544 0.544,-1.496 1.949,-1.496 0.181,0 0.77,0 1.223,0.317 0.453,0.272 0.906,0.997 0.906,2.221 0,1.676 -0.271,2.04 -1.586,2.991 l -4.531,3.218 c -2.176,1.541 -2.764,2.9 -2.764,5.574 0.044,4.622 2.854,5.936 7.024,5.936 3.398,0 5.257,-1.177 5.981,-2.492 0.544,-0.906 0.635,-1.858 0.635,-2.809 l 0,-2.584 -4.668,0 0,1.676 c 0,0.364 0.091,2.539 -1.994,2.539 -0.226,0 -0.543,0 -0.997,-0.227 -0.68,-0.408 -0.86,-1.133 -0.86,-1.858 0,-1.36 0.498,-1.813 1.541,-2.538 l 4.984,-3.49 C -0.59,9.925 -0.046,9.335 0.362,8.837 0.906,8.066 1.224,7.024 1.224,5.075 1.224,3.308 1.224,1.495 0,0"
         style="fill:#616265;fill-opacity:1;fill-rule:nonzero;stroke:none"
         id="path144"
         inkscape:connector-curvature="0" />
    </g>
    <g
       id="g146"
       transform="matrix(0.30814881,0,0,-0.30814881,153.77825,975.2551)">
      <path
         d="m 0,0 c -0.499,-2.402 -1.042,-3.716 -1.812,-4.668 -0.862,-1.042 -1.995,-1.677 -4.668,-1.677 -1.36,0 -2.13,0.182 -3.49,0.408 l 0.816,4.26 c 0.362,-0.091 1.042,-0.317 2.039,-0.317 1.858,0 2.356,1.994 2.447,3.036 l 0.045,0.635 -6.027,23.203 5.347,0 L -2.312,9.97 0,24.88 5.302,24.88 0,0 Z"
         style="fill:#616265;fill-opacity:1;fill-rule:nonzero;stroke:none"
         id="path148"
         inkscape:connector-curvature="0" />
    </g>
    <g
       id="g150"
       transform="matrix(0.30814881,0,0,-0.30814881,159.53228,974.2356)">
      <path
         d="m 0,0 c -0.997,-1.224 -2.629,-2.085 -5.937,-2.085 -2.584,0 -5.438,0.498 -6.572,3.218 -0.498,1.178 -0.498,2.583 -0.498,2.991 l 0,2.401 4.986,0 0,-1.812 c 0,-0.771 0.044,-1.042 0.135,-1.45 0.091,-0.544 0.544,-1.496 1.949,-1.496 0.181,0 0.77,0 1.223,0.317 0.453,0.272 0.906,0.997 0.906,2.221 0,1.676 -0.271,2.04 -1.586,2.991 l -4.531,3.218 c -2.176,1.541 -2.764,2.9 -2.764,5.574 0.044,4.622 2.854,5.936 7.024,5.936 3.398,0 5.257,-1.177 5.981,-2.492 0.544,-0.906 0.635,-1.858 0.635,-2.809 l 0,-2.584 -4.668,0 0,1.676 c 0,0.364 0.091,2.539 -1.994,2.539 -0.226,0 -0.543,0 -0.997,-0.227 -0.68,-0.408 -0.86,-1.133 -0.86,-1.858 0,-1.36 0.498,-1.813 1.541,-2.538 l 4.984,-3.49 C -0.59,9.925 -0.046,9.335 0.362,8.837 0.906,8.066 1.224,7.024 1.224,5.075 1.224,3.308 1.224,1.495 0,0"
         style="fill:#616265;fill-opacity:1;fill-rule:nonzero;stroke:none"
         id="path152"
         inkscape:connector-curvature="0" />
    </g>
    <g
       id="g154"
       transform="matrix(0.30814881,0,0,-0.30814881,162.92642,974.8083)">
      <path
         d="m 0,0 c -3.127,0 -4.759,0.68 -5.438,2.175 -0.408,0.816 -0.454,1.767 -0.454,2.674 l 0,15.001 -2.945,0 0,3.58 2.9,0 0,8.429 5.348,0 0,-8.429 3.218,0 0,-3.58 -3.218,0 0,-13.234 c 0,-0.724 0,-0.906 0.136,-1.268 0.317,-1.088 1.359,-1.269 2.311,-1.269 0.318,0 0.589,0.045 0.907,0.09 l 0,-3.898 C 2.176,0.136 1.405,0 0,0"
         style="fill:#616265;fill-opacity:1;fill-rule:nonzero;stroke:none"
         id="path156"
         inkscape:connector-curvature="0" />
    </g>
    <g
       id="g158"
       transform="matrix(0.30814881,0,0,-0.30814881,166.99074,969.4737)">
      <path
         d="M 0,0 C 0,0.499 0.091,2.312 -1.857,2.312 -3.807,2.312 -3.852,0.589 -3.852,0 l 0,-2.854 3.852,0 L 0,0 Z m -3.852,-6.662 0,-3.807 c 0,-0.815 0,-1.133 0.136,-1.54 0.362,-1.179 1.405,-1.314 1.859,-1.314 0.86,0 1.45,0.453 1.721,1.268 0.227,0.635 0.182,2.312 0.182,2.629 l 5.211,0 0,-1.858 c 0,-0.816 0,-1.315 -0.227,-2.085 -0.906,-3.263 -3.806,-4.169 -6.887,-4.169 -4.759,0 -6.345,2.356 -6.98,4.441 -0.317,1.133 -0.408,2.765 -0.408,3.036 l 0,9.79 c 0,0.362 0.046,1.903 0.59,3.126 1.133,2.719 4.124,3.716 6.843,3.716 3.761,0 5.845,-1.903 6.526,-3.308 0.407,-0.816 0.634,-1.54 0.634,-3.308 l 0,-6.617 -9.2,0 z"
         style="fill:#616265;fill-opacity:1;fill-rule:nonzero;stroke:none"
         id="path160"
         inkscape:connector-curvature="0" />
    </g>
    <g
       id="g162"
       transform="matrix(0.30814881,0,0,-0.30814881,175.31496,974.7384)">
      <path
         d="m 0,0 0,17.176 c 0,0.906 0,1.767 -0.816,2.356 -0.227,0.136 -0.589,0.318 -1.133,0.318 -1.813,0 -2.175,-1.496 -2.175,-2.946 l 0,-16.904 -5.348,0 0,17.04 c 0,0.951 0.091,1.813 -0.725,2.492 -0.363,0.318 -0.771,0.408 -1.269,0.408 -2.221,0 -2.085,-2.356 -2.085,-2.764 l 0,-17.176 -5.347,0 0,23.203 5.393,0 0,-1.541 c 0.589,0.544 2.13,2.039 4.577,2.039 2.492,0 3.807,-1.677 4.351,-2.31 1.857,1.586 2.492,1.857 3.806,2.13 0.771,0.135 1.133,0.135 1.496,0.135 2.085,0 3.897,-1.133 4.441,-3.172 0.182,-0.589 0.227,-0.997 0.227,-2.085 L 5.393,0 0,0 Z"
         style="fill:#616265;fill-opacity:1;fill-rule:nonzero;stroke:none"
         id="path164"
         inkscape:connector-curvature="0" />
    </g>
    <g
       id="g166"
       transform="matrix(0.30814881,0,0,-0.30814881,186.05502,973.4397)">
      <path
         d="m 0,0 c -0.725,-2.583 -2.854,-4.895 -8.293,-4.895 -2.266,0 -4.668,0.318 -6.571,1.813 -1.042,0.815 -1.45,1.677 -1.677,2.176 -0.362,0.906 -0.635,1.495 -0.635,3.307 l 0,4.668 5.847,0 0,-3.715 c 0,-1.179 -0.091,-2.539 1.042,-3.263 0.362,-0.227 0.906,-0.453 1.812,-0.453 1.043,0 1.632,0.226 2.04,0.589 0.861,0.679 0.861,2.084 0.861,4.259 0,0.409 0.091,1.859 -0.634,2.946 -0.453,0.679 -1.133,1.088 -1.359,1.269 l -5.575,3.762 c -1.223,0.815 -1.858,1.313 -2.673,2.628 -0.68,1.133 -1.134,2.356 -1.134,5.076 0,0.453 -0.045,2.719 0.77,4.395 1.814,3.898 7.297,3.898 7.931,3.898 0.952,0 6.073,0 7.75,-4.215 C -0.181,23.43 0,23.112 0,21.571 l 0,-3.172 -5.891,0 0,3.263 c 0,0.951 -0.363,2.312 -2.629,2.312 -1.359,0 -2.628,-0.499 -2.628,-3.173 0,-0.136 -0.09,-2.039 0.634,-3.081 0.182,-0.273 0.589,-0.59 1.224,-1.043 l 5.71,-3.943 c 0.408,-0.271 1.677,-1.223 2.629,-2.492 C 0.453,8.384 0.317,6.979 0.317,4.713 0.317,2.266 0.317,1.224 0,0"
         style="fill:#616265;fill-opacity:1;fill-rule:nonzero;stroke:none"
         id="path168"
         inkscape:connector-curvature="0" />
    </g>
    <g
       id="g170"
       transform="matrix(0.30814881,0,0,-0.30814881,191.06937,974.152)">
      <path
         d="m 0,0 c -1.948,-2.447 -5.257,-2.356 -6.027,-2.356 -3.354,0 -5.121,1.042 -6.163,2.174 -0.136,0.182 -0.635,0.862 -0.953,1.632 -0.362,0.952 -0.453,1.904 -0.453,2.946 l 0,10.288 c 0,1.676 0.227,3.081 1.27,4.44 1.994,2.584 5.574,2.629 6.299,2.629 0.544,0 5.393,0 6.888,-3.489 0.272,-0.68 0.453,-1.451 0.453,-2.992 l 0,-2.764 -5.301,0 0,2.809 c 0,0.59 -0.046,0.862 -0.091,1.134 -0.136,0.498 -0.635,1.495 -1.949,1.45 -0.634,0 -1.042,-0.181 -1.269,-0.317 -0.725,-0.499 -0.952,-1.224 -0.952,-2.81 l 0,-10.106 c 0,-0.815 0,-1.179 0.137,-1.586 0.271,-0.952 1.042,-1.45 1.993,-1.45 0.137,0 0.725,0.045 1.179,0.317 0.861,0.589 0.906,1.767 0.906,2.673 l 0,2.674 5.347,0 0,-2.628 C 1.314,3.942 1.405,1.768 0,0"
         style="fill:#616265;fill-opacity:1;fill-rule:nonzero;stroke:none"
         id="path172"
         inkscape:connector-curvature="0" />
    </g>
    <path
       d="m 192.21519,967.5885 1.67571,0 0,7.15 -1.67571,0 0,-7.15 z m 0,-2.7092 1.67571,0 0,1.6757 -1.67571,0 0,-1.6757 z"
       style="fill:#616265;fill-opacity:1;fill-rule:nonzero;stroke:none"
       id="path174"
       inkscape:connector-curvature="0" />
    <g
       id="g176"
       transform="matrix(0.30814881,0,0,-0.30814881,197.60579,969.4737)">
      <path
         d="M 0,0 C 0,0.499 0.091,2.312 -1.857,2.312 -3.807,2.312 -3.852,0.589 -3.852,0 l 0,-2.854 3.852,0 L 0,0 Z m -3.852,-6.662 0,-3.807 c 0,-0.815 0,-1.133 0.136,-1.54 0.362,-1.179 1.405,-1.314 1.859,-1.314 0.86,0 1.45,0.453 1.721,1.268 0.227,0.635 0.182,2.312 0.182,2.629 l 5.211,0 0,-1.858 c 0,-0.816 0,-1.315 -0.227,-2.085 -0.906,-3.263 -3.806,-4.169 -6.887,-4.169 -4.759,0 -6.345,2.356 -6.98,4.441 -0.317,1.133 -0.408,2.765 -0.408,3.036 l 0,9.79 c 0,0.362 0.046,1.903 0.59,3.126 1.133,2.719 4.124,3.716 6.843,3.716 3.761,0 5.845,-1.903 6.526,-3.308 0.407,-0.816 0.634,-1.54 0.634,-3.308 l 0,-6.617 -9.2,0 z"
         style="fill:#616265;fill-opacity:1;fill-rule:nonzero;stroke:none"
         id="path178"
         inkscape:connector-curvature="0" />
    </g>
    <g
       id="g180"
       transform="matrix(0.30814881,0,0,-0.30814881,203.03932,974.7384)">
      <path
         d="m 0,0 0,17.085 c 0,1.45 -0.091,2.039 -0.816,2.493 -0.181,0.136 -0.498,0.272 -1.042,0.272 -2.538,0 -2.312,-2.674 -2.312,-3.127 l 0,-16.723 -5.393,0 0,23.203 5.484,0 -0.045,-1.677 c 1.404,1.36 2.537,2.13 4.622,2.13 2.13,0 4.124,-1.088 4.668,-3.262 0.182,-0.635 0.182,-1.043 0.182,-2.267 L 5.348,0 0,0 Z"
         style="fill:#616265;fill-opacity:1;fill-rule:nonzero;stroke:none"
         id="path182"
         inkscape:connector-curvature="0" />
    </g>
    <g
       id="g184"
       transform="matrix(0.30814881,0,0,-0.30814881,209.74307,974.152)">
      <path
         d="m 0,0 c -1.948,-2.447 -5.257,-2.356 -6.027,-2.356 -3.354,0 -5.121,1.042 -6.163,2.174 -0.136,0.182 -0.635,0.862 -0.953,1.632 -0.362,0.952 -0.453,1.904 -0.453,2.946 l 0,10.288 c 0,1.676 0.227,3.081 1.27,4.44 1.994,2.584 5.574,2.629 6.299,2.629 0.544,0 5.393,0 6.888,-3.489 0.272,-0.68 0.453,-1.451 0.453,-2.992 l 0,-2.764 -5.301,0 0,2.809 c 0,0.59 -0.046,0.862 -0.091,1.134 -0.136,0.498 -0.635,1.495 -1.949,1.45 -0.634,0 -1.042,-0.181 -1.269,-0.317 -0.725,-0.499 -0.952,-1.224 -0.952,-2.81 l 0,-10.106 c 0,-0.815 0,-1.179 0.137,-1.586 0.271,-0.952 1.042,-1.45 1.993,-1.45 0.137,0 0.725,0.045 1.179,0.317 0.861,0.589 0.906,1.767 0.906,2.673 l 0,2.674 5.347,0 0,-2.628 C 1.314,3.942 1.405,1.768 0,0"
         style="fill:#616265;fill-opacity:1;fill-rule:nonzero;stroke:none"
         id="path186"
         inkscape:connector-curvature="0" />
    </g>
    <g
       id="g188"
       transform="matrix(0.30814881,0,0,-0.30814881,213.65421,969.4737)">
      <path
         d="M 0,0 C 0,0.499 0.091,2.312 -1.857,2.312 -3.807,2.312 -3.852,0.589 -3.852,0 l 0,-2.854 3.852,0 L 0,0 Z m -3.852,-6.662 0,-3.807 c 0,-0.815 0,-1.133 0.136,-1.54 0.362,-1.179 1.405,-1.314 1.859,-1.314 0.86,0 1.45,0.453 1.721,1.268 0.227,0.635 0.182,2.312 0.182,2.629 l 5.211,0 0,-1.858 c 0,-0.816 0,-1.315 -0.227,-2.085 -0.906,-3.263 -3.806,-4.169 -6.887,-4.169 -4.759,0 -6.345,2.356 -6.98,4.441 -0.317,1.133 -0.408,2.765 -0.408,3.036 l 0,9.79 c 0,0.362 0.046,1.903 0.59,3.126 1.133,2.719 4.124,3.716 6.843,3.716 3.761,0 5.845,-1.903 6.526,-3.308 0.407,-0.816 0.634,-1.54 0.634,-3.308 l 0,-6.617 -9.2,0 z"
         style="fill:#616265;fill-opacity:1;fill-rule:nonzero;stroke:none"
         id="path190"
         inkscape:connector-curvature="0" />
    </g>
    <g
       id="g192"
       transform="matrix(0.30814881,0,0,-0.30814881,177.55325,909.568)">
      <path
         d="m 0,0 c 8.68,7.119 24.025,14.879 48.266,14.879 9.92,0 31.611,-1.152 53.761,-16.152 5.537,-3.69 8.768,-6.459 17.996,-14.536 L 90.029,-37.268 c -8.998,8.77 -15.228,13.846 -27.459,17.766 -2.074,0.463 -8.304,2.311 -15.226,2.311 -8.727,0 -14.969,-2.676 -18.93,-6.317"
         style="fill:#579a2f;fill-opacity:1;fill-rule:nonzero;stroke:none"
         id="path194"
         inkscape:connector-curvature="0" />
    </g>
    <g
       transform="matrix(0.30814881,0,0,-0.30814881,-32.5618,1038.3173)"
       id="g196">
      <g
         id="g198" />
      <g
         id="g204">
        <g
           clip-path="url(#clipPath200)"
           id="g206"
           style="opacity:0.60000598">
          <g
             transform="translate(840.9365,431.3955)"
             id="g208">
            <path
               d="m 0,0 c -26.287,28.506 -65.675,46.621 -109.701,46.621 -33.76,0 -64.793,-10.652 -89.282,-28.473 l -15.982,13.225 c 28.536,21.674 65.232,34.713 105.264,34.713 50.867,0 96.344,-21.049 126.542,-54.119"
               style="fill:#579a2f;fill-opacity:1;fill-rule:nonzero;stroke:none"
               id="path210"
               inkscape:connector-curvature="0" />
          </g>
        </g>
      </g>
    </g>
    <g
       transform="matrix(0.30814881,0,0,-0.30814881,-32.5618,1038.3173)"
       id="g212">
      <g
         id="g214" />
      <g
         id="g220">
        <g
           clip-path="url(#clipPath216)"
           id="g222"
           style="opacity:0.80000299">
          <g
             transform="translate(814.6865,412.6143)"
             id="g224">
            <path
               d="m 0,0 c -20.168,21.422 -50.073,34.99 -83.451,34.99 -23.814,0 -45.86,-6.906 -63.862,-18.642 l -15.291,12.369 c 21.92,15.377 49.367,24.519 79.153,24.519 39.756,0 75.343,-16.287 99.181,-41.947"
               style="fill:#2b95b5;fill-opacity:1;fill-rule:nonzero;stroke:none"
               id="path226"
               inkscape:connector-curvature="0" />
          </g>
        </g>
      </g>
    </g>
  </g>
</svg>
