<?xml version="1.0" encoding="UTF-8" standalone="no"?>
<svg
   xmlns:dc="http://purl.org/dc/elements/1.1/"
   xmlns:cc="http://creativecommons.org/ns#"
   xmlns:rdf="http://www.w3.org/1999/02/22-rdf-syntax-ns#"
   xmlns:svg="http://www.w3.org/2000/svg"
   xmlns="http://www.w3.org/2000/svg"
   xmlns:sodipodi="http://sodipodi.sourceforge.net/DTD/sodipodi-0.dtd"
   xmlns:inkscape="http://www.inkscape.org/namespaces/inkscape"
   version="1.1"
   id="svg2"
   xml:space="preserve"
   width="78"
   height="78"
   viewBox="0 0 78 78"
   sodipodi:docname="slulogo.svg"
   inkscape:version="1.0.2 (e86c870879, 2021-01-15)"
   inkscape:export-filename="/home/kim/Workspace/Android/tagtags2/assets/images/slulogo.png"
   inkscape:export-xdpi="157.53847"
   inkscape:export-ydpi="157.53847"><metadata
     id="metadata8"><rdf:RDF><cc:Work
         rdf:about=""><dc:format>image/svg+xml</dc:format><dc:type
           rdf:resource="http://purl.org/dc/dcmitype/StillImage" /><dc:title></dc:title></cc:Work></rdf:RDF></metadata><defs
     id="defs6" /><sodipodi:namedview
     pagecolor="#ffffff"
     bordercolor="#666666"
     borderopacity="1"
     objecttolerance="10"
     gridtolerance="10"
     guidetolerance="10"
     inkscape:pageopacity="0"
     inkscape:pageshadow="2"
     inkscape:window-width="1545"
     inkscape:window-height="939"
     id="namedview4"
     showgrid="false"
     inkscape:zoom="1.4142136"
     inkscape:cx="31.391646"
     inkscape:cy="115.46788"
     inkscape:window-x="168"
     inkscape:window-y="71"
     inkscape:window-maximized="0"
     inkscape:current-layer="g10"
     inkscape:document-rotation="0" /><g
     id="g10"
     inkscape:groupmode="layer"
     inkscape:label="ink_ext_XXXXXX"
     transform="matrix(1.3333333,0,0,-1.3333333,0,136.06667)"><g
       id="g840"
       transform="translate(-9.0082013,9.0109048)"><path
         inkscape:connector-curvature="0"
         id="path14"
         style="fill:#5e0a2b;fill-opacity:1;fill-rule:nonzero;stroke:none;stroke-width:0.049973"
         d="m 51.008201,62.746418 c -1.75626,-1.163816 -3.426666,-2.539816 -5.966507,-2.539816 -2.935928,0 -5.406856,1.35901 -5.880452,4.306403 -0.344366,2.148829 -0.387293,7.856868 -0.387293,9.793512 V 76.5391 h 0.04293 c 1.162278,-2.412385 3.228772,-3.846353 3.228772,-6.335247 0,-1.231529 -0.404683,-2.029943 -1.015856,-3.202154 -0.31858,-0.611567 -0.792376,-1.392991 -0.792376,-2.115048 0,-0.424568 0.198144,-0.832146 0.930002,-0.832146 1.43788,0 2.247197,0.747243 4.115347,0.747243 2.135207,0 3.659392,-0.772829 5.725436,-2.004608 v -0.05072" /><path
         inkscape:connector-curvature="0"
         id="path16"
         style="fill:#00624c;fill-opacity:1;fill-rule:nonzero;stroke:none;stroke-width:0.049973"
         d="m 25.5082,62.79714 c 2.066294,1.231779 3.590278,2.004608 5.725435,2.004608 1.86835,0 2.677467,-0.747243 4.115398,-0.747243 0.731808,0 0.929952,0.407578 0.929952,0.832146 0,0.722057 -0.473547,1.503481 -0.792126,2.115048 -0.611423,1.172211 -1.016056,1.970625 -1.016056,3.202154 0,2.488894 2.066443,3.922862 3.228721,6.335247 h 0.04293 v -2.215592 c 0,-1.953635 -0.04293,-7.661674 -0.387292,-9.810503 -0.473547,-2.947393 -2.944674,-4.306403 -5.880403,-4.306403 -2.53989,0 -4.210246,1.376 -5.966556,2.539816 v 0.05072" /><path
         inkscape:connector-curvature="0"
         id="path18"
         style="fill:#00624c;fill-opacity:1;fill-rule:nonzero;stroke:none;stroke-width:0.049973"
         d="m 32.760968,56.385785 c -0.241071,0.404679 -0.826508,0.740446 -1.816628,0.740446 -0.731808,0 -1.274118,-0.223928 -1.274118,-0.826499 0,-1.369004 3.409325,-1.110745 3.409325,-3.22854 0,-1.231129 -0.886625,-2.032093 -2.643135,-2.032093 -0.861039,0 -1.653015,0.137825 -2.135157,0.353158 -0.03438,0.266854 -0.04318,0.516518 -0.04318,0.766382 0,0.232473 0.01719,0.481937 0.04318,0.723006 h 0.05172 c 0.507928,-0.662889 1.343031,-0.886817 2.169539,-0.886817 0.809317,0 1.239736,0.327172 1.239736,0.878272 0,1.377549 -3.374943,0.998655 -3.374943,3.211299 0,1.213989 0.921207,1.971576 2.65193,1.971576 0.447611,0 1.299855,-0.05152 1.773451,-0.266805 0.02579,-0.112089 0.03438,-0.404679 0.03438,-0.628607 0,-0.309981 -0.01719,-0.593977 -0.03438,-0.774778 h -0.05172" /><path
         inkscape:connector-curvature="0"
         id="path20"
         style="fill:#00624c;fill-opacity:1;fill-rule:nonzero;stroke:none;stroke-width:0.049973"
         d="m 38.495198,52.141249 c 1.041643,0 1.53238,0.120634 1.842364,0.404679 h 0.05172 C 40.354953,52.19297 40.165404,51.383662 40.06211,51.125402 h -4.924864 v 0.05152 c 0.292793,0.180752 0.430619,0.344562 0.430619,0.921398 v 3.839707 c 0,1.317432 0,1.644604 -0.396088,1.945789 v 0.05152 c 0.189349,0.01739 0.54231,0.03458 0.97273,0.03458 0.499332,0 0.938547,-0.01719 1.162278,-0.04298 v -0.05172 c -0.464802,-0.344312 -0.481992,-0.619762 -0.481992,-1.937194 v -3.79678 h 1.670405" /><path
         inkscape:connector-curvature="0"
         id="path22"
         style="fill:#00624c;fill-opacity:1;fill-rule:nonzero;stroke:none;stroke-width:0.049973"
         d="m 41.973437,55.946574 c 0,1.308887 0,1.584337 -0.473597,1.928649 v 0.05172 c 0.171958,0.01719 0.611373,0.04298 1.059183,0.04298 0.249667,0 0.481992,0 0.714268,-0.01719 -0.0084,-0.249664 -0.04273,-0.662939 -0.04273,-2.006157 v -2.290151 c 0,-1.007051 0.146371,-1.515174 1.127696,-1.515174 0.76619,0 1.523984,0.301385 1.842364,0.56824 0.137826,0.120634 0.137826,0.249664 0.137826,0.42182 v 2.789529 c 0,1.334623 0,1.601478 -0.473346,1.954385 v 0.05172 c 0.172157,0.01719 0.611172,0.04298 1.075974,0.04298 0.232675,0 0.456405,0 0.697676,-0.01719 -0.0088,-0.249664 -0.04318,-0.662939 -0.04318,-2.014702 V 52.76981 c 0,-0.576836 0.06891,-1.291496 0.559501,-1.610072 v -0.03433 H 46.68301 c -0.11204,0.120435 -0.215335,0.482138 -0.249667,0.619763 -0.697476,-0.464797 -1.420739,-0.706066 -2.367682,-0.706066 -1.601493,0 -2.09223,0.792368 -2.09223,2.049283 v 2.858192" /></g></g></svg>
