<?xml version="1.0" encoding="UTF-8" standalone="no"?>
<svg
   xmlns:dc="http://purl.org/dc/elements/1.1/"
   xmlns:cc="http://creativecommons.org/ns#"
   xmlns:rdf="http://www.w3.org/1999/02/22-rdf-syntax-ns#"
   xmlns:svg="http://www.w3.org/2000/svg"
   xmlns="http://www.w3.org/2000/svg"
   xmlns:xlink="http://www.w3.org/1999/xlink"
   xmlns:sodipodi="http://sodipodi.sourceforge.net/DTD/sodipodi-0.dtd"
   xmlns:inkscape="http://www.inkscape.org/namespaces/inkscape"
   sodipodi:docname="tagtags2_splash.svg"
   inkscape:version="1.0.2 (e86c870879, 2021-01-15, custom)"
   width="248"
   height="248"
   viewBox="0 0 65.616665 65.616668"
   version="1.1"
   id="svg8"
   inkscape:export-filename="/home/kim/Workspace/Android/tagtags2/assets/images/3.0x/tagtags2.png"
   inkscape:export-xdpi="288"
   inkscape:export-ydpi="288">
  <defs
     id="defs2">
    <linearGradient
       inkscape:collect="always"
       id="linearGradient2693">
      <stop
         style="stop-color:#ffffff;stop-opacity:1;"
         offset="0"
         id="stop2689" />
      <stop
         style="stop-color:#ffffff;stop-opacity:0;"
         offset="1"
         id="stop2691" />
    </linearGradient>
    <filter
       inkscape:collect="always"
       style="color-interpolation-filters:sRGB"
       id="filter2643"
       x="-0.02700012"
       width="1.0540002"
       y="-0.02699988"
       height="1.0539998">
      <feGaussianBlur
         inkscape:collect="always"
         stdDeviation="0.65484666"
         id="feGaussianBlur2645" />
    </filter>
    <linearGradient
       inkscape:collect="always"
       xlink:href="#linearGradient2693"
       id="linearGradient2695"
       x1="67.709846"
       y1="163.62473"
       x2="11.159266"
       y2="220.17509"
       gradientUnits="userSpaceOnUse" />
    <linearGradient
       inkscape:collect="always"
       id="linearGradient897">
      <stop
         style="stop-color:#128526;stop-opacity:1;"
         offset="0"
         id="stop893" />
      <stop
         style="stop-color:#aa0014;stop-opacity:1"
         offset="1"
         id="stop895" />
    </linearGradient>
    <linearGradient
       inkscape:collect="always"
       xlink:href="#linearGradient897"
       id="linearGradient899"
       x1="-5.822722"
       y1="-39.610477"
       x2="50.966091"
       y2="-96.399292"
       gradientUnits="userSpaceOnUse"
       gradientTransform="matrix(3.8740022,0,0,3.8740018,36.557243,387.45105)" />
  </defs>
  <sodipodi:namedview
     id="base"
     pagecolor="#ffffff"
     bordercolor="#666666"
     borderopacity="1.0"
     inkscape:pageopacity="0.0"
     inkscape:pageshadow="2"
     inkscape:zoom="1.415"
     inkscape:cx="-132.72236"
     inkscape:cy="175.0211"
     inkscape:document-units="px"
     inkscape:current-layer="layer1"
     inkscape:document-rotation="0"
     showgrid="false"
     showborder="true"
     units="px"
     inkscape:window-width="1920"
     inkscape:window-height="1023"
     inkscape:window-x="0"
     inkscape:window-y="27"
     inkscape:window-maximized="1"
     showguides="true"
     fit-margin-top="0"
     fit-margin-left="0"
     fit-margin-right="0"
     fit-margin-bottom="0"
     inkscape:pagecheckerboard="true" />
  <metadata
     id="metadata5">
    <rdf:RDF>
      <cc:Work
         rdf:about="">
        <dc:format>image/svg+xml</dc:format>
        <dc:type
           rdf:resource="http://purl.org/dc/dcmitype/StillImage" />
        <dc:title></dc:title>
      </cc:Work>
    </rdf:RDF>
  </metadata>
  <g
     inkscape:label="Layer 1"
     inkscape:groupmode="layer"
     id="layer1"
     transform="translate(-6.4389517,-159.09726)">
    <path
       id="path2000-6-2-7"
       style="fill:#000000;fill-opacity:1;stroke:none;stroke-width:2.26669;filter:url(#filter2643)"
       d="m 41.281269,163.59518 -13.854451,5.2e-4 H 16.174274 c -0.520469,0 -1.026049,0.0597 -1.51257,0.16898 -3.047888,0.68494 -5.3123356,3.39531 -5.3123356,6.65592 v 10.25881 8.60516 15.22853 8.60206 1.86396 c 0,0.6956 0.103909,1.36596 0.295587,1.9973 0.8501916,2.80042 3.4438386,4.82761 6.5293186,4.82761 h 0.297141 4.389911 6.454386 2.895949 4.478795 2.493904 l -0.364318,-0.95653 v -5.2e-4 l 9.542571,-4.28604 -9.542571,4.28656 0.364837,0.95653 h 13.293763 10.056749 0.197405 c 2.402589,0 4.505637,-1.23027 5.721096,-3.09645 0.697381,-1.07074 1.10381,-2.34994 1.10381,-3.72846 v -1.40611 l -1.143085,-0.0837 v -5.1e-4 h 5.19e-4 l 1.142566,0.0842 v -1.70015 -5.2e-4 -1.38441 -4.87567 -4.61678 -2.57142 -6.06836 -7.97212 -13.96298 c 0,-0.59778 -0.07659,-1.17676 -0.219625,-1.72857 -0.761741,-2.93851 -3.421973,-5.09633 -6.605281,-5.09633 h -7.947318 -6.312796 -5.191413 z m -28.272176,9.16482 0.95808,4.08399 h -5.16e-4 l -2.59674,2.15697 v -5.2e-4 l 2.59674,-2.15645 z m 26.446448,3.56257 0.247012,0.0222 v 5.2e-4 l -0.247012,-0.0222 z m 15.685347,2.25103 7.725111,1.25677 5.16e-4,5.1e-4 z m 0,0 -7.28431,8.84958 z m 2.141988,9.43715 h 5.18e-4 l -2.247926,2.53472 z m -2.247408,2.53524 -0.52555,0.59273 -5.028115,5.66994 5.027599,-5.67046 z m 7.593851,16.21245 -13.098425,3.04891 -5.16e-4,-5.2e-4 z m -47.338195,4.11809 1.519288,1.11311 z m 18.927009,3.144 -5.762438,6.49727 v 5.2e-4 l -5.701461,-4.17545 5.701461,4.17493 z" />
    <path
       id="rect891"
       style="fill:url(#linearGradient899);fill-opacity:1;stroke-width:2;stroke-linecap:round"
       d="M 134.6875 14 L 82.324219 14.001953 L 39.794922 14.001953 C 37.827799 14.001953 35.916948 14.227598 34.078125 14.640625 C 22.558552 17.229375 14 27.47331 14 39.796875 L 14 78.570312 L 14 111.09375 L 14 168.65039 L 14 201.16211 L 14 208.20703 C 14 210.83607 14.392731 213.36969 15.117188 215.75586 C 18.325972 226.32519 28.106126 233.97843 39.746094 234 L 119.20312 234 L 119.20508 234 L 208.26562 234 C 217.32086 233.97923 225.24455 229.33631 229.82812 222.29883 C 232.46389 218.25194 234 213.41719 234 208.20703 L 234 202.89258 L 229.67969 202.57617 L 229.67969 202.57422 L 229.68164 202.57422 L 234 202.89258 L 234 196.4668 L 234 196.46484 L 234 191.23242 L 234 172.80469 L 234 155.35547 L 234 145.63672 L 234 122.70117 L 234 92.570312 L 234 39.796875 C 234 37.537549 233.71051 35.349253 233.16992 33.263672 C 230.2909 22.157492 220.23649 14.001953 208.20508 14.001953 L 178.16797 14.001953 L 154.30859 14.001953 L 134.6875 14.001953 L 134.6875 14 z M 27.832031 48.638672 L 31.453125 64.074219 L 31.451172 64.074219 L 21.636719 72.226562 L 21.636719 72.224609 L 31.451172 64.074219 L 27.832031 48.638672 z M 127.78711 62.103516 L 128.7207 62.1875 L 128.7207 62.189453 L 127.78711 62.105469 L 127.78711 62.103516 z M 187.07031 70.611328 L 216.26758 75.361328 L 216.26953 75.363281 L 187.07031 70.611328 z M 195.16602 106.2793 L 195.16797 106.2793 L 186.67188 115.85938 L 195.16602 106.2793 z M 186.67188 115.86133 L 184.68555 118.10156 L 165.68164 139.53125 L 184.68359 118.09961 L 186.67188 115.86133 z M 215.37305 177.13672 L 165.86719 188.66016 L 165.86523 188.6582 L 215.37305 177.13672 z M 64.664062 213.36133 L 86.212891 229.14062 L 86.212891 229.14258 L 64.664062 213.36133 z M 153.89258 214.18555 L 117.82617 230.38672 L 117.82617 230.38477 L 153.89258 214.18555 z "
       transform="matrix(0.26458333,0,0,0.26458333,6.4389517,159.09726)" />
    <g
       id="g2093">
      <path
         id="path2000-6-2"
         style="fill:#4c5421;fill-opacity:1;stroke:none;stroke-width:2.26669"
         d="m 50.769672,214.14354 -5.957168,-1.36288 2.3439,2.98615 z" />
      <path
         id="path1992-7"
         style="fill:#524d1e;fill-opacity:1;stroke:none;stroke-width:2.26669"
         d="m 42.154125,205.17226 2.958643,-3.33638 -8.74711,0.61567 z" />
      <path
         id="path1990-5"
         style="fill:#3a6221;fill-opacity:1;stroke:none;stroke-width:2.26669"
         d="m 23.841166,206.85467 2.43696,0.81828 1.149258,-3.31438 z" />
      <path
         id="path1988-3"
         style="fill:#277223;fill-opacity:1;stroke:none;stroke-width:2.26669"
         d="m 17.604361,211.19545 -1.519662,-1.11304 0.218209,2.01842 z" />
      <path
         id="path1972-5"
         style="fill:#534c1e;fill-opacity:1;stroke:none;stroke-width:2.26669"
         d="m 12.163833,178.20664 2.59695,-2.15687 -1.182265,-5.0417 z" />
      <path
         id="path1970-6"
         style="fill:#465820;fill-opacity:1;stroke:none;stroke-width:2.26669"
         d="m 10.143119,188.49037 2.020714,-10.28373 -2.020714,1.67873 z" />
      <path
         id="path1956-2"
         style="fill:#2c6e23;fill-opacity:1;stroke:none;stroke-width:2.26669"
         d="m 31.005351,221.00976 -1.755746,-1.28587 -1.140093,1.28587 z" />
      <path
         id="path1952-9"
         style="fill:#366622;fill-opacity:1;stroke:none;stroke-width:2.26669"
         d="m 37.978379,221.00976 -0.364445,-0.95672 -2.129817,0.95672 z" />
      <path
         id="path1942-1"
         style="fill:#69391c;fill-opacity:1;stroke:none;stroke-width:2.26669"
         d="m 68.351452,211.07854 -1.142841,1.6164 1.142841,0.0839 z" />
      <path
         id="path1938-2"
         style="fill:#6f341b;fill-opacity:1;stroke:none;stroke-width:8.56702"
         d="M 234 172.80273 L 215.375 177.13477 L 234 191.23047 L 234 172.80273 z "
         transform="matrix(0.26458333,0,0,0.26458333,6.4389517,159.09726)" />
      <path
         id="path1930-7"
         style="fill:#8e1817;fill-opacity:1;stroke:none;stroke-width:8.56702"
         d="M 154.30859 14 L 144.97266 43.59375 L 194.66016 44.712891 L 178.16797 14 L 154.30859 14 z "
         transform="matrix(0.26458333,0,0,0.26458333,6.4389517,159.09726)" />
      <path
         id="path1924-0"
         style="fill:#8c1b18;fill-opacity:1;stroke:none;stroke-width:2.26669"
         d="m 55.93469,177.77938 7.725751,1.25699 -4.869796,-4.72676 z" />
      <path
         id="path1918-9"
         style="fill:#6e351b;fill-opacity:1;stroke:none;stroke-width:2.26669"
         d="m 47.084432,190.01507 3.827348,-0.9746 -3.979542,-0.57485 z" />
      <path
         id="path1916-3"
         style="fill:#663c1c;fill-opacity:1;stroke:none;stroke-width:2.26669"
         d="m 47.084432,190.01507 -0.152194,-1.54945 -8.197008,-1.18502 4.805157,3.63664 z" />
      <path
         id="path1912-6"
         style="fill:#673a1c;fill-opacity:1;stroke:none;stroke-width:2.26669"
         d="m 47.464922,193.88735 -0.38049,-3.87228 -3.544045,0.90217 z" />
      <path
         id="path1896-0"
         style="fill:#554a1e;fill-opacity:1;stroke:none;stroke-width:2.26669"
         d="m 19.779564,177.95267 -0.659666,4.70201 2.223337,-3.54313 z" />
      <path
         id="path1906-6"
         style="fill:#633e1c;fill-opacity:1;stroke:none;stroke-width:2.26669"
         d="m 43.540387,190.91724 -4.66763,1.18823 8.971735,6.64984 0.106813,0.0793 -0.01742,-0.17969 -0.468962,-4.76757 z" />
      <path
         id="rect888-2"
         style="fill:#772d1a;fill-opacity:1;stroke:none;stroke-width:2.26669"
         d="m 53.687515,189.44204 2.141738,0.30944 2.24809,-2.53506 -5.75271,1.46465 z" />
      <path
         id="path2004-6"
         style="fill:#7a2a1a;fill-opacity:1;stroke:none;stroke-width:2.26669"
         d="m 49.082687,173.17776 -3.193814,4.66855 1.043365,10.61931 3.979542,0.57485 2.775735,0.40157 -1.362882,-0.76097 -3.674237,-2.05189 7.284294,-8.8498 -2.182538,-0.35527 z" />
      <path
         id="path2002-1"
         style="fill:#6e351c;fill-opacity:1;stroke:none;stroke-width:2.26669"
         d="m 50.911783,189.04047 -3.827351,0.9746 0.38049,3.87228 2.810573,2.12706 5.027949,-5.6702 0.525809,-0.59273 -2.141738,-0.30944 z" />
      <path
         id="path1998-8"
         style="fill:#5d441d;fill-opacity:1;stroke:none;stroke-width:2.26669"
         d="m 55.851257,211.86107 -5.081585,2.28247 13.268048,3.03567 3.170891,-4.48427 z" />
      <path
         id="path1996-7"
         style="fill:#544b1e;fill-opacity:1;stroke:none;stroke-width:2.26669"
         d="m 50.324087,209.01291 -7.976966,1.85615 13.504136,0.99201 0.2723,-0.12239 z" />
      <path
         id="path1994-9"
         style="fill:#60411d;fill-opacity:1;stroke:none;stroke-width:2.26669"
         d="m 42.154125,205.17226 8.169962,3.84065 13.099349,-3.0485 -6.548529,-4.95597 -11.762139,0.82744 z" />
      <path
         id="path1986-2"
         style="fill:#306a22;fill-opacity:1;stroke:none;stroke-width:2.26669"
         d="m 23.548235,215.54861 2.729891,-7.87566 -2.43696,-0.81828 -6.236805,4.34078 z" />
      <path
         id="path1984-0"
         style="fill:#366622;fill-opacity:1;stroke:none;stroke-width:2.26669"
         d="m 35.011944,213.22625 -1.145134,-3.00494 -7.588684,-2.54836 -2.729891,7.87566 5.70137,4.17528 z" />
      <path
         id="path1982-2"
         style="fill:#3f5d21;fill-opacity:1;stroke:none;stroke-width:2.26669"
         d="m 36.80253,211.20691 -2.93572,-0.9856 1.145134,3.00494 z" />
      <path
         id="path1980-3"
         style="fill:#425b20;fill-opacity:1;stroke:none;stroke-width:2.26669"
         d="m 30.642284,201.75934 3.224526,8.46197 2.93572,0.9856 0.468965,0.1577 -0.266343,-0.386 z" />
      <path
         id="path1978-7"
         style="fill:#465720;fill-opacity:1;stroke:none;stroke-width:2.26669"
         d="m 37.005152,210.97861 0.266343,0.386 -0.468965,-0.1577 -1.790586,2.01934 2.60199,6.82679 9.54247,-4.28623 -2.3439,-2.98615 5.957168,1.36288 5.081585,-2.28247 -13.504136,-0.99201 7.976966,-1.85615 -8.169962,-3.84065 z" />
      <path
         id="path1974-5"
         style="fill:#455820;fill-opacity:1;stroke:none;stroke-width:2.26669"
         d="m 18.494614,191.97436 1.533413,6.54073 4.943144,-4.97248 -3.739332,-5.41806 z" />
      <path
         id="path1968-9"
         style="fill:#415c20;fill-opacity:1;stroke:none;stroke-width:8.56702"
         d="M 31.453125 64.072266 L 21.636719 72.224609 L 14 111.0918 L 14 168.64844 L 45.564453 124.25977 L 31.453125 64.072266 z "
         transform="matrix(0.26458333,0,0,0.26458333,6.4389517,159.09726)" />
      <path
         id="path1966-2"
         style="fill:#3a6221;fill-opacity:1;stroke:none;stroke-width:8.56702"
         d="M 45.564453 124.25977 L 14 168.64844 L 14 201.16016 L 36.707031 170.74023 L 65.771484 180.5 L 79.326172 171.06641 L 74.982422 183.59375 L 103.66406 193.22461 L 91.476562 161.24219 L 70.042969 130.1875 L 51.359375 148.98047 L 45.564453 124.25977 z "
         transform="matrix(0.26458333,0,0,0.26458333,6.4389517,159.09726)" />
      <path
         id="path1964-2"
         style="fill:#2a7023;fill-opacity:1;stroke:none;stroke-width:8.56702"
         d="M 36.707031 170.74023 L 14 201.16016 L 14 208.20508 C 14 210.83412 14.39276 213.36776 15.117188 215.75391 L 37.28125 200.32812 L 36.457031 192.69922 L 42.199219 196.90625 L 65.771484 180.5 L 36.707031 170.74023 z "
         transform="matrix(0.26458333,0,0,0.26458333,6.4389517,159.09726)" />
      <path
         id="path1962-8"
         style="fill:#1e7d28;fill-opacity:1;stroke:none;stroke-width:8.56702"
         d="M 37.28125 200.32812 L 15.117188 215.75391 C 18.330538 226.33817 28.133244 234 39.794922 234 L 40.917969 234 L 37.28125 200.32812 z "
         transform="matrix(0.26458333,0,0,0.26458333,6.4389517,159.09726)" />
      <path
         id="path1960-9"
         style="fill:#247524;fill-opacity:1;stroke:none;stroke-width:8.56702"
         d="M 42.199219 196.90625 L 37.28125 200.32812 L 40.917969 234 L 57.509766 234 L 64.664062 213.35938 L 42.199219 196.90625 z "
         transform="matrix(0.26458333,0,0,0.26458333,6.4389517,159.09726)" />
      <path
         id="path1958-7"
         style="fill:#287223;fill-opacity:1;stroke:none;stroke-width:8.56702"
         d="M 64.664062 213.35938 L 57.509766 234 L 81.904297 234 L 86.212891 229.14062 L 64.664062 213.35938 z "
         transform="matrix(0.26458333,0,0,0.26458333,6.4389517,159.09726)" />
      <path
         id="path1954-3"
         style="fill:#346722;fill-opacity:1;stroke:none;stroke-width:8.56702"
         d="M 107.99219 204.58203 L 86.212891 229.14062 L 92.849609 234 L 109.77734 234 L 117.82617 230.38477 L 107.99219 204.58203 z "
         transform="matrix(0.26458333,0,0,0.26458333,6.4389517,159.09726)" />
      <path
         id="path1950-6"
         style="fill:#425b20;fill-opacity:1;stroke:none;stroke-width:8.56702"
         d="M 153.89258 214.18359 L 117.82617 230.38477 L 119.20508 234 L 169.44922 234 L 153.89258 214.18359 z "
         transform="matrix(0.26458333,0,0,0.26458333,6.4389517,159.09726)" />
      <path
         id="path1948-1"
         style="fill:#524d1f;fill-opacity:1;stroke:none;stroke-width:8.56702"
         d="M 167.54883 208.04883 L 153.89258 214.18359 L 169.44922 234 L 207.45898 234 L 217.69531 219.52148 L 167.54883 208.04883 z "
         transform="matrix(0.26458333,0,0,0.26458333,6.4389517,159.09726)" />
      <path
         id="path1946-2-9"
         style="fill:#5d431d;fill-opacity:1;stroke:none;stroke-width:8.56702"
         d="M 217.69531 219.52148 L 207.45898 234 L 208.20508 234 C 217.28571 234 225.23426 229.35017 229.82812 222.29688 L 217.69531 219.52148 z "
         transform="matrix(0.26458333,0,0,0.26458333,6.4389517,159.09726)" />
      <path
         id="path1944-9"
         style="fill:#64401e;fill-opacity:1;stroke:none;stroke-width:8.56702"
         d="M 229.67969 202.57422 L 217.69531 219.52148 L 229.82812 222.29688 C 232.46389 218.24999 234 213.41517 234 208.20508 L 234 202.89062 L 229.67969 202.57422 z "
         transform="matrix(0.26458333,0,0,0.26458333,6.4389517,159.09726)" />
      <path
         id="path1940-3"
         style="fill:#653d1e;fill-opacity:1;stroke:none;stroke-width:8.56702"
         d="M 215.375 177.13477 L 165.86523 188.6582 L 187.78516 198.95898 L 186.75586 199.42188 L 229.67969 202.57422 L 234 196.46484 L 234 191.23047 L 215.375 177.13477 z "
         transform="matrix(0.26458333,0,0,0.26458333,6.4389517,159.09726)" />
      <path
         id="path1936-1"
         style="fill:#70321b;fill-opacity:1;stroke:none;stroke-width:8.56702"
         d="M 234 155.35352 L 190.625 158.4043 L 215.375 177.13477 L 234 172.80273 L 234 155.35352 z "
         transform="matrix(0.26458333,0,0,0.26458333,6.4389517,159.09726)" />
      <path
         id="path1934-9"
         style="fill:#71321b;fill-opacity:1;stroke:none;stroke-width:8.56702"
         d="M 184.68555 118.09961 L 165.68164 139.5293 L 190.625 158.4043 L 234 155.35352 L 234 145.63477 L 184.68555 118.09961 z "
         transform="matrix(0.26458333,0,0,0.26458333,6.4389517,159.09726)" />
      <path
         id="path1932-4"
         style="fill:#7c2819;fill-opacity:1;stroke:none;stroke-width:8.56702"
         d="M 186.67188 115.85938 L 184.68555 118.09961 L 234 145.63477 L 234 122.69922 L 186.67188 115.85938 z "
         transform="matrix(0.26458333,0,0,0.26458333,6.4389517,159.09726)" />
      <path
         id="path1928-7"
         style="fill:#951216;fill-opacity:1;stroke:none;stroke-width:8.56702"
         d="M 217.75391 29.078125 L 230.64062 77.699219 L 216.26953 75.361328 L 234 92.568359 L 234 39.794922 C 234 37.535589 233.71057 35.347304 233.16992 33.261719 L 217.75391 29.078125 z "
         transform="matrix(0.26458333,0,0,0.26458333,6.4389517,159.09726)" />
      <path
         id="path1926-8-1"
         style="fill:#842118;fill-opacity:1;stroke:none;stroke-width:8.56702"
         d="M 187.07031 70.609375 L 159.53906 104.05859 L 173.42578 111.8125 L 195.16797 106.27734 L 186.67188 115.85938 L 234 122.69922 L 234 92.568359 L 216.26953 75.361328 L 187.07031 70.609375 z "
         transform="matrix(0.26458333,0,0,0.26458333,6.4389517,159.09726)" />
      <path
         id="path1922-4"
         style="fill:#772d1a;fill-opacity:1;stroke:none;stroke-width:2.26669"
         d="m 45.888873,177.84631 -0.478133,-4.86383 -4.403579,4.42971 1.91711,4.76711 z" />
      <path
         id="path1910-5"
         style="fill:#653d1c;fill-opacity:1;stroke:none;stroke-width:2.26669"
         d="m 47.933884,198.65492 2.341611,-2.64051 -2.810573,-2.12706 z" />
      <path
         id="path1908-0"
         style="fill:#633e1c;fill-opacity:0.995576;stroke:none;stroke-width:2.26669"
         d="m 47.844492,198.75531 -2.731724,3.08057 11.762139,-0.82744 -6.599412,-4.99403 -2.341611,2.64051 0.01742,0.17969 z" />
      <path
         id="path1904-3"
         style="fill:#514e1f;fill-opacity:1;stroke:none;stroke-width:2.26669"
         d="m 38.872757,192.10547 -10.856303,2.76381 2.62583,6.89006 6.362868,9.21927 5.148973,-5.80635 -5.788467,-2.72071 8.74711,-0.61567 2.731724,-3.08057 z" />
      <path
         id="path1900-6"
         style="fill:#534c1e;fill-opacity:1;stroke:none;stroke-width:2.26669"
         d="m 31.691607,186.7823 -6.720436,6.76031 5.671113,8.21673 -2.62583,-6.89006 10.856303,-2.76381 z" />
      <path
         id="path1898-1"
         style="fill:#673a1c;fill-opacity:1;stroke:none;stroke-width:2.26669"
         d="m 31.691607,186.7823 7.18115,5.32317 4.66763,-1.18823 -4.805157,-3.63664 8.197008,1.18502 -1.043365,-10.61931 -2.964602,4.33299 -1.91711,-4.76711 z" />
      <path
         id="path1894-0"
         style="fill:#524d1e;fill-opacity:1;stroke:none;stroke-width:2.26669"
         d="m 19.865749,177.33839 0.877872,-6.25927 -5.982838,4.97065 3.733831,15.92459 2.737225,-3.84981 3.739332,5.41806 6.720436,-6.76031 -10.348372,-7.67075 -2.223337,3.54313 0.659666,-4.70201 -0.520307,-0.38553 z" />
      <path
         id="path1892-6"
         style="fill:#59471e;fill-opacity:1;stroke:none;stroke-width:2.26669"
         d="m 23.259888,176.05664 -3.394139,1.28175 -0.606492,0.22875 0.520307,0.38553 1.563671,1.15888 z" />
      <path
         id="path1890-3"
         style="fill:#5b451d;fill-opacity:1;stroke:none;stroke-width:8.56702"
         d="M 34.078125 14.638672 C 22.558536 17.227413 14 27.471345 14 39.794922 L 14 78.568359 L 21.636719 72.224609 L 26.984375 45.017578 L 31.453125 64.072266 L 54.064453 45.285156 L 50.746094 68.943359 L 63.574219 64.097656 L 86.302734 27.876953 L 29.021484 32.316406 L 34.078125 14.638672 z "
         transform="matrix(0.26458333,0,0,0.26458333,6.4389517,159.09726)" />
      <path
         id="path1886-2"
         style="fill:#71321b;fill-opacity:1;stroke:none;stroke-width:8.56702"
         d="M 39.794922 14 C 37.827776 14 35.916934 14.225445 34.078125 14.638672 L 29.021484 32.316406 L 86.302734 27.876953 L 63.574219 64.097656 L 98.720703 50.828125 L 119 34.65625 L 82.324219 14 L 39.794922 14 z "
         transform="matrix(0.26458333,0,0,0.26458333,6.4389517,159.09726)" />
      <path
         id="path1884-0"
         style="fill:#72311b;fill-opacity:1;stroke:none;stroke-width:2.26669"
         d="m 40.249391,175.52854 -2.055097,-5.11046 -5.635357,2.12752 -2.565317,2.04593 z" />
      <path
         id="path1882-6"
         style="fill:#633e1c;fill-opacity:1;stroke:none;stroke-width:2.26669"
         d="m 40.249391,175.52854 -10.255771,-0.93701 2.565317,-2.04593 -9.299049,3.51104 -1.916653,3.05491 10.348372,7.67075 9.315554,-9.37011 z" />
      <path
         id="path1880-1"
         style="fill:#7c2819;fill-opacity:1;stroke:none;stroke-width:8.56702"
         d="M 82.324219 14 L 119 34.65625 L 98.720703 50.828125 L 120.01953 42.787109 L 127.78711 62.101562 L 128.7207 62.1875 L 134.6875 14 L 82.324219 14 z "
         transform="matrix(0.26458333,0,0,0.26458333,6.4389517,159.09726)" />
      <path
         id="path1878-5"
         style="fill:#9a0e16;fill-opacity:1;stroke:none;stroke-width:8.56702"
         d="M 134.6875 14 L 128.7207 62.1875 L 127.78711 62.103516 L 130.65234 69.222656 L 147.29492 52.480469 L 149.10156 70.863281 L 161.17383 53.21875 L 178.82227 69.267578 L 187.07031 70.609375 L 197.86523 57.496094 L 216.26953 75.361328 L 230.64062 77.699219 L 217.75391 29.078125 L 233.16992 33.261719 C 230.29089 22.155566 220.23647 14 208.20508 14 L 178.16797 14 L 194.66016 44.712891 L 144.97266 43.59375 L 154.30859 14 L 134.6875 14 z "
         transform="matrix(0.26458333,0,0,0.26458333,6.4389517,159.09726)" />
    </g>
    <path
       id="rect2788-8"
       style="fill:#ffffff;fill-opacity:1;stroke:none;stroke-width:0.234122;stroke-miterlimit:4;stroke-dasharray:none"
       d="m 27.243087,169.89766 v 16.0056 a 12.004367,12.004367 0 0 0 12.004197,12.00467 v 4.0014 a 12.004367,12.004367 0 0 0 12.004199,12.0042 v -8.0028 a 4.0014551,4.0014551 0 0 1 -4.001402,-4.0014 v -4.0014 h 4.001402 v -8.0028 h -4.001402 v -4.00187 h -8.002797 v 4.00139 a 4.0014551,4.0014551 0 0 1 -4.001398,-4.00139 v -4.00141 h 4.001398 v -8.0028 h -4.001398 v -4.00139 z" />
    <path
       id="path2000-6-2-7-5"
       style="fill:url(#linearGradient2695);fill-opacity:1;stroke:none;stroke-width:2.26669;opacity:0.24735914"
       d="m 42.075023,162.80143 -13.854455,5.2e-4 H 16.968024 c -0.520469,0 -1.026049,0.0597 -1.51257,0.16898 -3.047888,0.68494 -5.312336,3.39531 -5.312336,6.65592 v 10.25881 8.60516 15.22853 8.60206 1.86396 c 0,0.6956 0.103909,1.36596 0.295587,1.9973 0.850192,2.80042 3.443839,4.82761 6.529319,4.82761 h 0.297141 4.389911 6.454386 2.895949 4.478795 2.493907 l -0.36432,-0.95653 v -5.2e-4 l 9.54257,-4.28604 -9.54257,4.28656 0.36484,0.95653 h 13.29376 10.05675 0.1974 c 2.40259,0 4.50564,-1.23027 5.7211,-3.09645 0.69738,-1.07074 1.10381,-2.34994 1.10381,-3.72846 v -1.40611 l -1.14309,-0.0837 v -5.1e-4 h 5.2e-4 l 1.14257,0.0842 v -1.70015 -5.2e-4 -1.38441 -4.87567 -4.61678 -2.57142 -6.06836 -7.97212 -13.96298 c 0,-0.59778 -0.0766,-1.17676 -0.21963,-1.72857 -0.76174,-2.93851 -3.42197,-5.09633 -6.60528,-5.09633 h -7.94731 -6.3128 -5.19141 z m -28.27218,9.16482 0.95808,4.08399 h -5.16e-4 l -2.59674,2.15697 v -5.2e-4 l 2.59674,-2.15645 z m 26.44645,3.56257 0.24701,0.0222 v 5.2e-4 l -0.24701,-0.0222 z m 15.68534,2.25103 7.72512,1.25677 5.1e-4,5.1e-4 z m 0,0 -7.2843,8.84958 z m 2.14199,9.43715 h 5.2e-4 l -2.24793,2.53472 z m -2.24741,2.53524 -0.52554,0.59273 -5.02812,5.66994 5.0276,-5.67046 z m 7.59386,16.21245 -13.09843,3.04891 -5.1e-4,-5.2e-4 z m -47.338199,4.11809 1.519288,1.11311 z m 18.927009,3.144 -5.762438,6.49727 v 5.2e-4 l -5.701461,-4.17545 5.701461,4.17493 z" />
  </g>
</svg>
