<?xml version="1.0" encoding="UTF-8" standalone="no"?>
<svg
   width="24"
   height="24"
   viewBox="0 0 6.35 6.35"
   version="1.1"
   id="svg8"
   sodipodi:docname="checkbox_checked_24.svg"
   inkscape:version="1.1.1 (3bf5ae0d25, 2021-09-20)"
   xmlns:inkscape="http://www.inkscape.org/namespaces/inkscape"
   xmlns:sodipodi="http://sodipodi.sourceforge.net/DTD/sodipodi-0.dtd"
   xmlns="http://www.w3.org/2000/svg"
   xmlns:svg="http://www.w3.org/2000/svg"
   xmlns:rdf="http://www.w3.org/1999/02/22-rdf-syntax-ns#"
   xmlns:cc="http://creativecommons.org/ns#"
   xmlns:dc="http://purl.org/dc/elements/1.1/">
  <defs
     id="defs2">
    <filter
       inkscape:collect="always"
       style="color-interpolation-filters:sRGB"
       id="filter928"
       x="-0.027"
       width="1.054"
       y="-0.027"
       height="1.054">
      <feGaussianBlur
         inkscape:collect="always"
         stdDeviation="0.2475"
         id="feGaussianBlur930" />
    </filter>
  </defs>
  <sodipodi:namedview
     id="base"
     pagecolor="#ffffff"
     bordercolor="#666666"
     borderopacity="1.0"
     inkscape:pageopacity="0.0"
     inkscape:pageshadow="2"
     inkscape:zoom="22.627416"
     inkscape:cx="10.253049"
     inkscape:cy="12.705826"
     inkscape:document-units="px"
     inkscape:current-layer="layer1"
     inkscape:document-rotation="0"
     showgrid="false"
     units="px"
     inkscape:window-width="1319"
     inkscape:window-height="901"
     inkscape:window-x="72"
     inkscape:window-y="88"
     inkscape:window-maximized="0"
     inkscape:pagecheckerboard="0" />
  <metadata
     id="metadata5">
    <rdf:RDF>
      <cc:Work
         rdf:about="">
        <dc:format>image/svg+xml</dc:format>
        <dc:type
           rdf:resource="http://purl.org/dc/dcmitype/StillImage" />
      </cc:Work>
    </rdf:RDF>
  </metadata>
  <g
     inkscape:label="Layer 1"
     inkscape:groupmode="layer"
     id="layer1">
    <path
       id="path926"
       style="fill:#000000;fill-opacity:1;stroke:none;stroke-width:2;stroke-linecap:round;stroke-miterlimit:4;stroke-dasharray:none;stroke-opacity:1;filter:url(#filter928)"
       d="M 4.2109375 1 C 2.450329 0.99999996 0.99999996 2.4503288 1 4.2109375 L 1 19.789062 C 1 21.549671 2.450329 23 4.2109375 23 L 19.789062 23 C 21.549671 23 23 21.549671 23 19.789062 L 23 4.2109375 C 23 2.4503289 21.549671 1 19.789062 1 L 4.2109375 1 z M 7.0507812 6.0117188 C 7.2826554 6.0117188 7.5137323 6.0996698 7.6914062 6.2773438 L 12 10.585938 L 16.308594 6.2773438 C 16.486268 6.0996698 16.717345 6.0117188 16.949219 6.0117188 C 17.181093 6.0117188 17.414123 6.0996698 17.591797 6.2773438 L 17.722656 6.4082031 C 18.078004 6.7635511 18.078004 7.3360584 17.722656 7.6914062 L 13.414062 12 L 17.722656 16.308594 C 18.078004 16.663942 18.078004 17.236449 17.722656 17.591797 L 17.591797 17.722656 C 17.236449 18.078004 16.663942 18.078004 16.308594 17.722656 L 12 13.414062 L 7.6914062 17.722656 C 7.3360584 18.078004 6.7635511 18.078004 6.4082031 17.722656 L 6.2773438 17.591797 C 5.9219958 17.236449 5.9219958 16.663942 6.2773438 16.308594 L 10.585938 12 L 6.2773438 7.6914062 C 5.9219958 7.3360583 5.9219958 6.7635511 6.2773438 6.4082031 L 6.4082031 6.2773438 C 6.5858771 6.0996698 6.8189071 6.0117187 7.0507812 6.0117188 z "
       transform="scale(0.26458333)" />
    <path
       id="rect919"
       style="fill:#004b0d;fill-opacity:1;stroke:none;stroke-width:2;stroke-linecap:round;stroke-miterlimit:4;stroke-dasharray:none;stroke-opacity:1"
       d="M 4.2109375 1 C 2.450329 0.99999996 0.99999996 2.4503288 1 4.2109375 L 1 19.789062 C 1 21.549671 2.450329 23 4.2109375 23 L 19.789062 23 C 21.549671 23 23 21.549671 23 19.789062 L 23 4.2109375 C 23 2.4503289 21.549671 1 19.789062 1 L 4.2109375 1 z M 7.0507812 6.0117188 C 7.2826554 6.0117188 7.5137323 6.0996698 7.6914062 6.2773438 L 12 10.585938 L 16.308594 6.2773438 C 16.486268 6.0996698 16.717345 6.0117188 16.949219 6.0117188 C 17.181093 6.0117188 17.414123 6.0996698 17.591797 6.2773438 L 17.722656 6.4082031 C 18.078004 6.7635511 18.078004 7.3360584 17.722656 7.6914062 L 13.414062 12 L 17.722656 16.308594 C 18.078004 16.663942 18.078004 17.236449 17.722656 17.591797 L 17.591797 17.722656 C 17.236449 18.078004 16.663942 18.078004 16.308594 17.722656 L 12 13.414062 L 7.6914062 17.722656 C 7.3360584 18.078004 6.7635511 18.078004 6.4082031 17.722656 L 6.2773438 17.591797 C 5.9219958 17.236449 5.9219958 16.663942 6.2773438 16.308594 L 10.585938 12 L 6.2773438 7.6914062 C 5.9219958 7.3360583 5.9219958 6.7635511 6.2773438 6.4082031 L 6.4082031 6.2773438 C 6.5858771 6.0996698 6.8189071 6.0117187 7.0507812 6.0117188 z "
       transform="scale(0.26458333)" />
  </g>
</svg>
